<svg xmlns="http://www.w3.org/2000/svg" viewBox="0 0 32 32" fill="#ccdaf5" id="Affiliate--Streamline-Tabler-Filled" height="32" width="32">
  <desc>
    Affiliate Streamline Icon: https://streamlinehq.com
  </desc>
  <path d="M24.666666666666664 4a3.333333333333333 3.333333333333333 0 1 1 -1.216 6.437333333333333l-6.074666666666666 6.073333333333332a7.299999999999999 7.299999999999999 0 0 1 1.248 4.952l3.498666666666667 1.0493333333333332a3.333333333333333 3.333333333333333 0 1 1 -0.7666666666666666 2.5546666666666664l-3.4973333333333336 -1.0506666666666666a7.333333333333333 7.333333333333333 0 0 1 -13.853333333333333 -3.0533333333333332L4 20.666666666666664l0.005333333333333333 -0.29466666666666663a7.333333333333333 7.333333333333333 0 0 1 3.9786666666666664 -6.230666666666666L6.933333333333334 10.642666666666667a3.3306666666666667 3.3306666666666667 0 0 1 -2.925333333333333 -3.0719999999999996L4 7.333333333333333l0.006666666666666666 -0.21866666666666668a3.333333333333333 3.333333333333333 0 1 1 5.481333333333333 2.7613333333333334l1.0493333333333332 3.5a7.299999999999999 7.299999999999999 0 0 1 4.952 1.248l6.073333333333332 -6.074666666666666a3.316 3.316 0 0 1 -0.22266666666666668 -0.9973333333333333L21.333333333333332 7.333333333333333l0.006666666666666666 -0.21866666666666668A3.333333333333333 3.333333333333333 0 0 1 24.666666666666664 4z" stroke-width="1.3333"></path>
</svg>