<svg xmlns="http://www.w3.org/2000/svg" fill="none" viewBox="0 0 30 30" id="Artificial-Intelligence-Spark--Streamline-Core" height="30" width="30">
  <desc>
    Artificial Intelligence Spark Streamline Icon: https://streamlinehq.com
  </desc>
  <g id="artificial-intelligence-spark--brain-thought-ai-automated-ai">
    <path id="Union" fill="#ccdaf5" fill-rule="evenodd" d="M20.869285714285716 1.8214285714285714c0.3921428571428571 -1.7892857142857141 2.9442857142857144 -1.7999999999999998 3.3514285714285714 -0.010714285714285714l0.02142857142857143 0.08571428571428572 0.03642857142857143 0.16499999999999998c0.4714285714285714 2.0014285714285713 2.089285714285714 3.531428571428571 4.118571428571428 3.882857142857143 1.8685714285714285 0.3257142857142857 1.8685714285714285 3.0085714285714285 0 3.334285714285714a5.134285714285714 5.134285714285714 0 0 0 -4.125 3.9149999999999996l-0.05142857142857143 0.2207142857142857c-0.40714285714285714 1.787142857142857 -2.957142857142857 1.7785714285714285 -3.3514285714285714 -0.015l-0.04285714285714286 -0.18857142857142856a5.1 5.1 0 0 0 -4.107857142857143 -3.934285714285714c-1.8642857142857143 -0.3257142857142857 -1.8642857142857143 -3.004285714285714 0 -3.3278571428571424A5.1 5.1 0 0 0 20.824285714285715 2.031428571428571l0.03 -0.13714285714285715 0.015 -0.07071428571428572ZM18.552857142857142 13.709999999999999A2.7728571428571427 2.7728571428571427 0 0 0 16.339285714285715 11.571428571428571v15.460714285714285a6.424285714285714 6.424285714285714 0 0 0 11.151428571428571 -1.8214285714285714 6.462857142857143 6.462857142857143 0 0 1 -1.667142857142857 -0.3921428571428571c-1.275 -0.48 -2.6614285714285715 -1.425 -3.799285714285714 -3.077142857142857a1.3392857142857142 1.3392857142857142 0 0 1 2.2071428571428573 -1.5192857142857141c0.8185714285714285 1.1892857142857143 1.757142857142857 1.7978571428571428 2.535 2.089285714285714 0.3942857142857143 0.15000000000000002 0.7457142857142857 0.2142857142857143 1.02 0.2357142857142857l0.04928571428571429 0.004285714285714286C29.16428571428571 21.107142857142854 30 18.31285714285714 30 15.979285714285714c0 -1.5728571428571427 -0.3792857142857143 -3.124285714285714 -1.035 -4.44l-0.1692857142857143 0.03214285714285714c-1.1142857142857143 0.19285714285714284 -2.0014285714285713 1.0371428571428571 -2.252142857142857 2.1385714285714283l-0.05142857142857143 0.21857142857142856c-0.96 4.215 -6.975 4.189285714285714 -7.898571428571429 -0.03428571428571429l-0.04285714285714286 -0.18642857142857142ZM13.660714285714285 9.889285714285714a4.206428571428572 4.206428571428572 0 0 1 0 -4.557857142857142v-1.1142857142857143a5.609999999999999 5.609999999999999 0 0 0 -9.882857142857143 3.6385714285714283l0 0.004285714285714286c0.08357142857142857 0.8357142857142857 0.42428571428571427 1.4571428571428573 0.8185714285714285 1.907142857142857 0.4907142857142857 0.5592857142857143 1.0071428571428571 0.7885714285714286 1.1292857142857142 0.8142857142857143a1.3392857142857142 1.3392857142857142 0 1 1 -0.5935714285714286 2.6142857142857143c-0.7714285714285714 -0.17785714285714285 -1.757142857142857 -0.7607142857142857 -2.55 -1.6607142857142858a6.027857142857143 6.027857142857143 0 0 1 -0.8207142857142857 -1.2042857142857144C0.6685714285714286 11.84142857142857 0 13.892142857142856 0 15.979285714285714c0 1.575 0.3814285714285714 3.36 1.035 4.795714285714285 0.17142857142857143 -0.19285714285714284 0.3578571428571429 -0.36857142857142855 0.5571428571428572 -0.5228571428571428a1.3392857142857142 1.3392857142857142 0 1 1 1.6585714285714286 2.1c-0.3814285714285714 0.3021428571428571 -0.7799999999999999 0.9514285714285714 -1.0242857142857142 1.7035714285714285a6.422142857142857 6.422142857142857 0 0 0 11.434285714285714 2.9764285714285714v-7.864285714285714a5.764285714285714 5.764285714285714 0 0 1 -3.0107142857142857 1.2535714285714286 1.3392857142857142 1.3392857142857142 0 1 1 -0.2978571428571429 -2.6635714285714287c1.0907142857142857 -0.12 1.8835714285714285 -0.7478571428571428 2.4492857142857143 -1.5728571428571427 0.5742857142857143 -0.8357142857142857 0.8228571428571428 -1.7528571428571427 0.8592857142857143 -2.1921428571428567V9.889285714285714Z" clip-rule="evenodd" stroke-width="2.1429"></path>
  </g>
</svg>