<svg xmlns="http://www.w3.org/2000/svg" viewBox="0 0 34 34" id="Robot--Streamline-Font-Awesome" height="34" width="34">
  <desc>
    Robot Streamline Icon: https://streamlinehq.com
  </desc>
<!--! Font Awesome Free 6.5.2 by @fontawesome - https://fontawesome.com License - https://fontawesome.com/license/free (Icons: CC BY 4.0, Fonts: SIL OFL 1.1, Code: MIT License) Copyright 2024 Fonticons, Inc.-->
  <path d="M17 3.672c0.92150625 0 1.666 0.74449375 1.666 1.666v3.332h6.2475c2.0720875 0 3.7485 1.6764125 3.7485 3.7485v14.161c0 2.0720875 -1.6764125 3.7485 -3.7485 3.7485H9.0865c-2.0720875 0 -3.7485 -1.6764125 -3.7485 -3.7485V12.4185c0 -2.0720875 1.6764125 -3.7485 3.7485 -3.7485h6.2475v-3.332c0 -0.92150625 0.74449375 -1.666 1.666 -1.666ZM11.169 23.663999999999998c-0.45815 0 -0.833 0.37485 -0.833 0.833s0.37485 0.833 0.833 0.833h1.666c0.45815 0 0.833 -0.37485 0.833 -0.833s-0.37485 -0.833 -0.833 -0.833h-1.666Zm4.998 0c-0.45815 0 -0.833 0.37485 -0.833 0.833s0.37485 0.833 0.833 0.833h1.666c0.45815 0 0.833 -0.37485 0.833 -0.833s-0.37485 -0.833 -0.833 -0.833h-1.666Zm4.998 0c-0.45815 0 -0.833 0.37485 -0.833 0.833s0.37485 0.833 0.833 0.833h1.666c0.45815 0 0.833 -0.37485 0.833 -0.833s-0.37485 -0.833 -0.833 -0.833H21.165ZM14.0845 17c0 -1.603110625 -1.7354184375 -2.6050534374999996 -3.12375 -1.803498125 -0.6443265625 0.37200249999999996 -1.04125 1.059493125 -1.04125 1.803498125 0 1.603110625 1.7354184375 2.6050534374999996 3.12375 1.803498125 0.6443265625 -0.37200249999999996 1.04125 -1.059493125 1.04125 -1.803498125Zm7.9135 2.0825c1.603110625 -0.00006906249999999999 2.605069375 -1.7355353125 1.8034503124999999 -3.1238296875C23.4294371875 15.31438625 22.741973125 14.9175 21.997999999999998 14.9175c-1.603110625 0 -2.6050534374999996 1.7354184375 -1.803498125 3.12375 0.37201843749999997 0.6443584375 1.0594612499999998 1.041281875 1.803498125 1.04125ZM2.839 15.334h0.833V25.33H2.839c-1.3796562499999998 0 -2.499 -1.11934375 -2.499 -2.499v-4.998c0 -1.3796562499999998 1.11934375 -2.499 2.499 -2.499Zm28.322 0c1.3796562499999998 0 2.499 1.11934375 2.499 2.499v4.998c0 1.3796562499999998 -1.11934375 2.499 -2.499 2.499h-0.833V15.334h0.833Z" fill="#ccdaf5" stroke-width="0.0531"></path>
</svg>