<svg viewBox="0 0 16 16" fill="none" xmlns="http://www.w3.org/2000/svg" id="Refresh--Streamline-Unicons" height="16" width="16">
  <desc>
    Refresh Streamline Icon: https://streamlinehq.com
  </desc>
  <path d="M10 8c0 -1.1333333333333333 -0.8666666666666667 -2 -2 -2s-2 0.8666666666666667 -2 2 0.8666666666666667 2 2 2 2 -0.8666666666666667 2 -2Zm1.3333333333333333 -5.799999999999999C8.733333333333333 0.7333333333333334 5.533333333333333 1.2 3.3999999999999995 3.1333333333333333V2c0 -0.39999999999999997 -0.26666666666666666 -0.6666666666666666 -0.6666666666666666 -0.6666666666666666s-0.6666666666666666 0.26666666666666666 -0.6666666666666666 0.6666666666666666v3c0 0.39999999999999997 0.26666666666666666 0.6666666666666666 0.6666666666666666 0.6666666666666666h3c0.39999999999999997 0 0.6666666666666666 -0.26666666666666666 0.6666666666666666 -0.6666666666666666s-0.26666666666666666 -0.6666666666666666 -0.6666666666666666 -0.6666666666666666H4.133333333333333C5.133333333333333 3.2666666666666666 6.533333333333333 2.6666666666666665 8 2.6666666666666665c2.9333333333333336 0 5.333333333333333 2.4 5.333333333333333 5.333333333333333 0 0.39999999999999997 0.26666666666666666 0.6666666666666666 0.6666666666666666 0.6666666666666666s0.6666666666666666 -0.26666666666666666 0.6666666666666666 -0.6666666666666666c0 -2.4 -1.2666666666666666 -4.6 -3.333333333333333 -5.799999999999999Zm1.9333333333333331 8.133333333333333h-3c-0.39999999999999997 0 -0.6666666666666666 0.26666666666666666 -0.6666666666666666 0.6666666666666666s0.26666666666666666 0.6666666666666666 0.6666666666666666 0.6666666666666666h1.5999999999999999C10.866666666666667 12.733333333333334 9.466666666666665 13.333333333333332 8 13.333333333333332c-2.9333333333333336 0 -5.333333333333333 -2.4 -5.333333333333333 -5.333333333333333 0 -0.39999999999999997 -0.26666666666666666 -0.6666666666666666 -0.6666666666666666 -0.6666666666666666s-0.6666666666666666 0.26666666666666666 -0.6666666666666666 0.6666666666666666c0 3.6666666666666665 3 6.666666666666666 6.666666666666666 6.666666666666666 1.7333333333333334 0 3.333333333333333 -0.6666666666666666 4.6 -1.8666666666666665V14c0 0.39999999999999997 0.26666666666666666 0.6666666666666666 0.6666666666666666 0.6666666666666666s0.6666666666666666 -0.26666666666666666 0.6666666666666666 -0.6666666666666666v-3c0 -0.39999999999999997 -0.3333333333333333 -0.6666666666666666 -0.6666666666666666 -0.6666666666666666Z" fill="#ccdaf5" stroke-width="0.6667"></path>
</svg>