<svg viewBox="0 0 36 36" fill="none" xmlns="http://www.w3.org/2000/svg" id="Percentage--Streamline-Unicons" height="36" width="36">
  <desc>
    Percentage Streamline Icon: https://streamlinehq.com
  </desc>
  <path d="M8.65335 15.25695c1.308 0 2.5866 -0.38805 3.6740999999999997 -1.1145 1.0875 -0.72675 1.9351500000000001 -1.7596500000000002 2.43585 -2.96805 0.5004 -1.20825 0.63135 -2.538 0.37620000000000003 -3.8208 -0.25529999999999997 -1.28295 -0.885 -2.4612 -1.8098999999999998 -3.3861 -0.9249 -0.9249 -2.1033 -1.5547499999999999 -3.3861 -1.8098999999999998 -1.2828 -0.25515 -2.61255 -0.1242 -3.82095 0.37635 -1.2084 0.50055 -2.24115 1.3482 -2.9678999999999998 2.4356999999999998 -0.7266 1.0875 -1.1145 2.3661 -1.1145 3.6740999999999997 0.00195 1.7533500000000002 0.6993 3.4342499999999996 1.93905 4.67415 1.23975 1.23975 2.9208 1.9371 4.67415 1.93905Zm0 -8.8176c0.43605000000000005 0 0.8622 0.1293 1.22475 0.37139999999999995 0.3624 0.24225000000000002 0.645 0.5865 0.8118000000000001 0.9894 0.16695 0.40275000000000005 0.2106 0.8459999999999999 0.12555 1.27365s-0.29505000000000003 0.8203500000000001 -0.6033 1.1286c-0.3084 0.30824999999999997 -0.7011 0.51825 -1.12875 0.6033 -0.42765000000000003 0.08505 -0.8709 0.0414 -1.27365 -0.12539999999999998 -0.40275000000000005 -0.1668 -0.747 -0.44939999999999997 -0.98925 -0.81195 -0.24225000000000002 -0.36255 -0.37155 -0.7887000000000001 -0.37155 -1.2246000000000001 0.00045 -0.58455 0.2328 -1.1451 0.64605 -1.55835 0.4134 -0.4134 0.9738 -0.64575 1.55835 -0.64605Zm18.7029 14.294250000000002c-1.30785 0 -2.5866 0.38775000000000004 -3.67395 1.1145 -1.08765 0.7266 -1.9353 1.75935 -2.4356999999999998 2.9677499999999997 -0.50055 1.2084 -0.6315 2.53815 -0.3765 3.82095 0.25529999999999997 1.28295 0.885 2.4612 1.8100500000000002 3.3861 0.9247500000000001 0.9247500000000001 2.10315 1.5547499999999999 3.38595 1.8098999999999998 1.28295 0.25515 2.6127000000000002 0.12435 3.8208 -0.37635 1.20855 -0.50055 2.24145 -1.3482 2.96805 -2.4356999999999998 0.7266 -1.08765 1.1145 -2.3661 1.1145 -3.67395 -0.00195 -1.7535 -0.69915 -3.4345499999999998 -1.9388999999999998 -4.674300000000001 -1.24005 -1.23975 -2.9208 -1.9372500000000001 -4.674300000000001 -1.9388999999999998Zm0 8.8176c-0.43590000000000007 0 -0.86205 -0.12945 -1.22475 -0.3717 -0.3624 -0.24209999999999998 -0.645 -0.58635 -0.8118000000000001 -0.9894 -0.16695 -0.40275000000000005 -0.2106 -0.84585 -0.12539999999999998 -1.2734999999999999s0.2949 -0.8203500000000001 0.6033 -1.1286c0.3081 -0.3084 0.70095 -0.51825 1.1286 -0.6033 0.42765000000000003 -0.08505 0.87105 -0.0414 1.2738 0.12539999999999998 0.40275000000000005 0.16695 0.747 0.44925 0.98925 0.81195 0.24209999999999998 0.3624 0.37139999999999995 0.7887000000000001 0.37139999999999995 1.22475 -0.00030000000000000003 0.5844 -0.23264999999999997 1.14495 -0.64605 1.5581999999999998 -0.41325 0.4134 -0.97365 0.64575 -1.55835 0.6462ZM34.9941 1.0059c-0.2046 -0.20475000000000002 -0.44745 -0.36719999999999997 -0.71505 -0.47805C34.0116 0.41715 33.7251 0.36 33.4356 0.36s-0.5763 0.057150000000000006 -0.8436 0.16785c-0.26744999999999997 0.11084999999999999 -0.5103 0.2733 -0.7152000000000001 0.47805L1.01535 31.8675c-0.2067 0.20415 -0.3711 0.44730000000000003 -0.48360000000000003 0.7152000000000001 -0.11249999999999999 0.26805 -0.17085 0.55575 -0.17175 0.8461500000000001 -0.0009 0.29055000000000003 0.055650000000000005 0.5787 0.1665 0.8472 0.1107 0.2688 0.2736 0.5126999999999999 0.4791 0.7184999999999999 0.20550000000000002 0.20534999999999998 0.4497 0.36824999999999997 0.71835 0.47895 0.26865 0.11084999999999999 0.5565 0.16725 0.8472 0.16635 0.29055000000000003 -0.00075 0.5781000000000001 -0.05925 0.8461500000000001 -0.1716 0.2679 -0.11265 0.51105 -0.2769 0.7152000000000001 -0.48375L34.9941 4.1229000000000005c0.20475000000000002 -0.2046 0.36705 -0.4476 0.4779 -0.71505 0.11084999999999999 -0.2673 0.168 -0.55395 0.168 -0.84345s-0.057150000000000006 -0.5760000000000001 -0.168 -0.84345c-0.11084999999999999 -0.26744999999999997 -0.27315 -0.51045 -0.4779 -0.71505Z" fill="#ccdaf5" stroke-width="1.5"></path>
</svg>