<svg xmlns="http://www.w3.org/2000/svg" viewBox="-1.25 -1.25 30 30" fill="none" stroke="#ccdaf5" stroke-linecap="round" stroke-linejoin="round" id="Candlestick-Chart--Streamline-Lucide" height="30" width="30">
  <desc>
    Candlestick Chart Streamline Icon: https://streamlinehq.com
  </desc>
  <path d="M10.3125 5.729166666666666v4.583333333333333" stroke-width="2.5"></path>
  <path d="M9.166666666666666 10.3125h2.2916666666666665s1.1458333333333333 0 1.1458333333333333 1.1458333333333333v4.583333333333333s0 1.1458333333333333 -1.1458333333333333 1.1458333333333333H9.166666666666666s-1.1458333333333333 0 -1.1458333333333333 -1.1458333333333333v-4.583333333333333s0 -1.1458333333333333 1.1458333333333333 -1.1458333333333333" stroke-width="2.5"></path>
  <path d="M10.3125 17.1875v2.2916666666666665" stroke-width="2.5"></path>
  <path d="M19.479166666666664 3.4375v2.2916666666666665" stroke-width="2.5"></path>
  <path d="M18.333333333333332 5.729166666666666h2.2916666666666665s1.1458333333333333 0 1.1458333333333333 1.1458333333333333v6.875s0 1.1458333333333333 -1.1458333333333333 1.1458333333333333h-2.2916666666666665s-1.1458333333333333 0 -1.1458333333333333 -1.1458333333333333V6.875s0 -1.1458333333333333 1.1458333333333333 -1.1458333333333333" stroke-width="2.5"></path>
  <path d="M19.479166666666664 14.895833333333332v3.4375" stroke-width="2.5"></path>
  <path d="M3.4375 3.4375v20.625h20.625" stroke-width="2.5"></path>
</svg>