<svg xmlns="http://www.w3.org/2000/svg" viewBox="-1.46 -1.46 35 35" fill="none" stroke="#ccdaf5" stroke-linecap="round" stroke-linejoin="round" id="Candlestick-Chart--Streamline-Lucide" height="35" width="35">
  <desc>
    Candlestick Chart Streamline Icon: https://streamlinehq.com
  </desc>
  <path d="M12.03 6.683333333333334v5.346666666666667" stroke-width="2.92"></path>
  <path d="M10.693333333333333 12.03h2.6733333333333333s1.3366666666666667 0 1.3366666666666667 1.3366666666666667v5.346666666666667s0 1.3366666666666667 -1.3366666666666667 1.3366666666666667H10.693333333333333s-1.3366666666666667 0 -1.3366666666666667 -1.3366666666666667v-5.346666666666667s0 -1.3366666666666667 1.3366666666666667 -1.3366666666666667" stroke-width="2.92"></path>
  <path d="M12.03 20.05v2.6733333333333333" stroke-width="2.92"></path>
  <path d="M22.723333333333333 4.01v2.6733333333333333" stroke-width="2.92"></path>
  <path d="M21.386666666666667 6.683333333333334h2.6733333333333333s1.3366666666666667 0 1.3366666666666667 1.3366666666666667v8.02s0 1.3366666666666667 -1.3366666666666667 1.3366666666666667h-2.6733333333333333s-1.3366666666666667 0 -1.3366666666666667 -1.3366666666666667V8.02s0 -1.3366666666666667 1.3366666666666667 -1.3366666666666667" stroke-width="2.92"></path>
  <path d="M22.723333333333333 17.376666666666665v4.01" stroke-width="2.92"></path>
  <path d="M4.01 4.01v24.06h24.06" stroke-width="2.92"></path>
</svg>
