<svg xmlns="http://www.w3.org/2000/svg" viewBox="0 0 24 24" fill="none" stroke="#ccdaf5" stroke-linecap="round" stroke-linejoin="round" id="Candlestick-Chart--Streamline-Lucide" height="24" width="24">
  <desc>
    Candlestick Chart Streamline Icon: https://streamlinehq.com
  </desc>
  <path d="M9 5v4" stroke-width="2"></path>
  <path d="M8 9h2s1 0 1 1v4s0 1 -1 1H8s-1 0 -1 -1v-4s0 -1 1 -1" stroke-width="2"></path>
  <path d="M9 15v2" stroke-width="2"></path>
  <path d="M17 3v2" stroke-width="2"></path>
  <path d="M16 5h2s1 0 1 1v6s0 1 -1 1h-2s-1 0 -1 -1V6s0 -1 1 -1" stroke-width="2"></path>
  <path d="M17 13v3" stroke-width="2"></path>
  <path d="M3 3v18h18" stroke-width="2"></path>
</svg>
