<svg xmlns="http://www.w3.org/2000/svg" viewBox="0 0 33 33" id="Code--Streamline-Font-Awesome" height="33" width="33">
  <desc>
    Code Streamline Icon: https://streamlinehq.com
  </desc>
<!--! Font Awesome Free 6.5.2 by @fontawesome - https://fontawesome.com License - https://fontawesome.com/license/free (Icons: CC BY 4.0, Fonts: SIL OFL 1.1, Code: MIT License) Copyright 2024 Fonticons, Inc.-->
  <path d="M20.178963749999998 3.6236320312499997c-0.85909828125 -0.24762374999999998 -1.7535735937499999 0.252676875 -2.00119734375 1.1117751562499998L11.70926109375 27.37517578125c-0.24761859374999998 0.85909828125 0.252676875 1.7535684375 1.1117751562499998 2.0011921875s1.7535735937499999 -0.252676875 2.00119734375 -1.1117751562499998l6.4685053125 -22.63976859375c0.24761859374999998 -0.85909828125 -0.252676875 -1.7535684375 -1.1117751562499998 -2.0011921875Zm4.07313328125 6.0692775c-0.6316870312499999 0.6316870312499999 -0.6316870312499999 1.65755390625 0 2.28924609375L28.7648934375 16.5l-4.5178495312499996 4.5178495312499996c-0.6316870312499999 0.6316870312499999 -0.6316870312499999 1.65755390625 0 2.2892409375s1.65755390625 0.6316921874999999 2.28924609375 0l5.6599434375 -5.6599434375c0.6316870312499999 -0.6316870312499999 0.6316870312499999 -1.65755390625 0 -2.2892409375L26.536289999999997 9.69796265625c-0.6316921874999999 -0.6316921874999999 -1.65755390625 -0.6316921874999999 -2.28924609375 0Zm-15.4991409375 0c-0.6316921874999999 -0.6316921874999999 -1.65755390625 -0.6316921874999999 -2.28924609375 0L0.8037665625 15.352852968749998c-0.6316870312499999 0.6316870312499999 -0.6316870312499999 1.65755390625 0 2.2892409375l5.6599434375 5.6599434375c0.6316921874999999 0.6316921874999999 1.65755390625 0.6316921874999999 2.28924609375 0s0.6316870312499999 -1.65755390625 0 -2.28924609375L4.2351065625 16.5l4.5178495312499996 -4.5178495312499996c0.6316870312499999 -0.6316870312499999 0.6316870312499999 -1.65755390625 0 -2.2892409375Z" fill="#ccdaf5" stroke-width="0.0516"></path>
</svg>