<svg id="Horizontal-Sliders-Dots--Streamline-Atlas" xmlns="http://www.w3.org/2000/svg" viewBox="-1 -1 32 32" height="32" width="32">
  <desc>
    Horizontal Sliders Dots Streamline Icon: https://streamlinehq.com
  </desc>
  <defs></defs>
  <path d="M20.9625 4.2625a2.3874999999999997 2.3874999999999997 0 1 0 4.7749999999999995 0 2.3874999999999997 2.3874999999999997 0 1 0 -4.7749999999999995 0" fill="none" stroke="#ccdaf5" stroke-miterlimit="10" stroke-width="2"></path>
  <path d="M4.2625 15a2.3874999999999997 2.3874999999999997 0 1 0 4.7749999999999995 0 2.3874999999999997 2.3874999999999997 0 1 0 -4.7749999999999995 0" fill="none" stroke="#ccdaf5" stroke-miterlimit="10" stroke-width="2"></path>
  <path d="M12.6125 25.7375a2.3874999999999997 2.3874999999999997 0 1 0 4.7749999999999995 0 2.3874999999999997 2.3874999999999997 0 1 0 -4.7749999999999995 0" fill="none" stroke="#ccdaf5" stroke-miterlimit="10" stroke-width="2"></path>
  <path d="m0.6875 4.2625 20.275 0" fill="none" stroke="#ccdaf5" stroke-miterlimit="10" stroke-width="2"></path>
  <path d="m25.7375 4.2625 3.5749999999999997 0" fill="none" stroke="#ccdaf5" stroke-miterlimit="10" stroke-width="2"></path>
  <path d="m0.6875 15 3.5749999999999997 0" fill="none" stroke="#ccdaf5" stroke-miterlimit="10" stroke-width="2"></path>
  <path d="m9.037500000000001 15 20.275 0" fill="none" stroke="#ccdaf5" stroke-miterlimit="10" stroke-width="2"></path>
  <path d="m0.6875 25.7375 11.924999999999999 0" fill="none" stroke="#ccdaf5" stroke-miterlimit="10" stroke-width="2"></path>
  <path d="m17.3875 25.7375 11.924999999999999 0" fill="none" stroke="#ccdaf5" stroke-miterlimit="10" stroke-width="2"></path>
</svg>