<svg xmlns="http://www.w3.org/2000/svg" viewBox="0 0 36 36" fill="#ccdaf5" id="Transform--Streamline-Tabler-Filled" height="36" width="36">
  <desc>
    Transform Streamline Icon: https://streamlinehq.com
  </desc>
  <path d="M27 21a6 6 0 1 1 -5.9925 6.300000000000001L21 27l0.0075 -0.30000000000000004A6 6 0 0 1 27 21z" stroke-width="1.5"></path>
  <path d="M25.0605 3.4395000000000002a1.5 1.5 0 0 1 0.1245 1.98l-0.1245 0.14100000000000001L23.121 7.5H28.5a4.5 4.5 0 0 1 4.4925 4.236L33 12v4.5a1.5 1.5 0 0 1 -2.9895 0.17550000000000002L30 16.5V12a1.5 1.5 0 0 0 -1.3245 -1.4895L28.5 10.5h-5.3774999999999995l1.9380000000000002 1.9394999999999998a1.5 1.5 0 0 1 -1.98 2.2455000000000003l-0.14100000000000001 -0.1245 -4.5 -4.5a1.47 1.47 0 0 1 -0.42000000000000004 -1.308l0.05399999999999999 -0.21899999999999997 0.06 -0.156c0.08700000000000001 -0.189 0.21000000000000002 -0.36 0.3675 -0.501l4.4385 -4.437a1.5 1.5 0 0 1 2.121 0z" stroke-width="1.5"></path>
  <path d="M4.5 18a1.5 1.5 0 0 1 1.4895 1.3245L6 19.5v4.5a1.5 1.5 0 0 0 1.3245 1.4895L7.5 25.5h5.3774999999999995l-1.9380000000000002 -1.9394999999999998a1.5 1.5 0 0 1 -0.1245 -1.98l0.1245 -0.14100000000000001a1.5 1.5 0 0 1 1.98 -0.1245l0.14100000000000001 0.1245 4.5 4.5a1.47 1.47 0 0 1 0.42000000000000004 1.308l-0.05399999999999999 0.21899999999999997 -0.06 0.156a1.53 1.53 0 0 1 -0.3675 0.501l-4.4385 4.437a1.5 1.5 0 0 1 -2.2455000000000003 -1.98l0.1245 -0.14100000000000001L12.876 28.5H7.5a4.5 4.5 0 0 1 -4.4925 -4.236L3 24v-4.5a1.5 1.5 0 0 1 1.5 -1.5z" stroke-width="1.5"></path>
  <path d="M9 3a6 6 0 1 1 -5.9925 6.300000000000001L3 9l0.0075 -0.30000000000000004A6 6 0 0 1 9 3z" stroke-width="1.5"></path>
</svg>