<svg xmlns="http://www.w3.org/2000/svg" fill="none" viewBox="0 0 33 33" id="Copy--Streamline-Ionic-Filled" height="33" width="33">
  <desc>
    Copy Streamline Icon: https://streamlinehq.com
  </desc>
  <path fill="#ccdaf5" d="M27.471812500000002 32.67H11.302293749999999c-1.3784375 0 -2.7003624999999998 -0.54759375 -3.6751 -1.5222625 -0.97466875 -0.9747374999999999 -1.5222625 -2.2966625 -1.5222625 -3.67516875V11.30298125c0 -1.3784375 0.54759375 -2.70029375 1.5222625 -3.6750312500000004 0.9747374999999999 -0.97466875 2.2966625 -1.5222625 3.6751 -1.5222625H27.471812500000002c1.37850625 0 2.7004312500000003 0.54759375 3.67516875 1.5222625 0.97466875 0.9747374999999999 1.5222625 2.29659375 1.5222625 3.6750312500000004v16.169587500000002c0 1.37850625 -0.54759375 2.7004312500000003 -1.5222625 3.67516875 -0.9747374999999999 0.97466875 -2.2966625 1.5222625 -3.67516875 1.5222625Z" stroke-width="0.6875"></path>
  <path fill="#ccdaf5" d="M9.57048125 3.79493125h17.027175c-0.35935625000000004 -1.0126187500000001 -1.023275 -1.88925 -1.900525 -2.50958125C23.819812499999998 0.66501875 22.772199999999998 0.33130625 21.6976375 0.32999999999999996H5.528118750000001c-1.3784375 0 -2.7004312500000003 0.54759375 -3.6751 1.5222625S0.33075625000000003 4.148925 0.33075625000000003 5.5273625v16.169587500000002C0.3320625 22.771375 0.665775 23.819125 1.28610625 24.696374999999996c0.62033125 0.87725 1.4969625 1.5412375 2.5095125 1.90045625V9.56979375c0 -1.5316124999999998 0.6084375 -3.0005249999999997 1.6913875 -4.083475 1.08301875 -1.08301875 2.55193125 -1.6913875 4.083475 -1.6913875Z" stroke-width="0.6875"></path>
</svg>