<svg xmlns="http://www.w3.org/2000/svg" fill="none" viewBox="0 0 30 30" id="Apps-Sharp--Streamline-Ionic-Sharp" height="30" width="30">
  <desc>
    Apps Sharp Streamline Icon: https://streamlinehq.com
  </desc>
  <path fill="#ccdaf5" d="M7.649625 0.30075H0.865375C0.553125 0.30075 0.3 0.553875 0.3 0.8660625v6.7843125c0 0.3121875 0.25312500000000004 0.565375 0.565375 0.565375h6.784249999999999c0.3121875 0 0.5653125 -0.2531875 0.5653125 -0.565375V0.8660625c0 -0.3121875 -0.25312500000000004 -0.5653125 -0.5653125 -0.5653125Z" stroke-width="0.625"></path>
  <path fill="#ccdaf5" d="M18.392875 0.30075H11.608625c-0.31224999999999997 0 -0.565375 0.25312500000000004 -0.565375 0.5653125v6.7843125c0 0.3121875 0.25312500000000004 0.565375 0.565375 0.565375h6.784249999999999c0.31224999999999997 0 0.565375 -0.2531875 0.565375 -0.565375V0.8660625c0 -0.3121875 -0.25312500000000004 -0.5653125 -0.565375 -0.5653125Z" stroke-width="0.625"></path>
  <path fill="#ccdaf5" d="M29.134625 0.30075H22.350375c-0.31224999999999997 0 -0.565375 0.25312500000000004 -0.565375 0.5653125v6.7843125c0 0.3121875 0.25312500000000004 0.565375 0.565375 0.565375h6.784249999999999c0.31224999999999997 0 0.565375 -0.2531875 0.565375 -0.565375V0.8660625c0 -0.3121875 -0.25312500000000004 -0.5653125 -0.565375 -0.5653125Z" stroke-width="0.625"></path>
  <path fill="#ccdaf5" d="M7.649625 11.0425H0.865375c-0.31224999999999997 0 -0.565375 0.25312500000000004 -0.565375 0.565375v6.784249999999999c0 0.31224999999999997 0.25312500000000004 0.565375 0.565375 0.565375h6.784249999999999c0.3121875 0 0.5653125 -0.25312500000000004 0.5653125 -0.565375V11.607875c0 -0.31224999999999997 -0.25312500000000004 -0.565375 -0.5653125 -0.565375Z" stroke-width="0.625"></path>
  <path fill="#ccdaf5" d="M18.392875 11.0425H11.608625c-0.31224999999999997 0 -0.565375 0.25312500000000004 -0.565375 0.565375v6.784249999999999c0 0.31224999999999997 0.25312500000000004 0.565375 0.565375 0.565375h6.784249999999999c0.31224999999999997 0 0.565375 -0.25312500000000004 0.565375 -0.565375V11.607875c0 -0.31224999999999997 -0.25312500000000004 -0.565375 -0.565375 -0.565375Z" stroke-width="0.625"></path>
  <path fill="#ccdaf5" d="M29.134625 11.0425H22.350375c-0.31224999999999997 0 -0.565375 0.25312500000000004 -0.565375 0.565375v6.784249999999999c0 0.31224999999999997 0.25312500000000004 0.565375 0.565375 0.565375h6.784249999999999c0.31224999999999997 0 0.565375 -0.25312500000000004 0.565375 -0.565375V11.607875c0 -0.31224999999999997 -0.25312500000000004 -0.565375 -0.565375 -0.565375Z" stroke-width="0.625"></path>
  <path fill="#ccdaf5" d="M7.649625 21.78425H0.865375c-0.31224999999999997 0 -0.565375 0.2531875 -0.565375 0.565375v6.7843125c0 0.3121875 0.25312500000000004 0.5653125 0.565375 0.5653125h6.784249999999999c0.3121875 0 0.5653125 -0.25312500000000004 0.5653125 -0.5653125V22.349625c0 -0.3121875 -0.25312500000000004 -0.565375 -0.5653125 -0.565375Z" stroke-width="0.625"></path>
  <path fill="#ccdaf5" d="M18.392875 21.78425H11.608625c-0.31224999999999997 0 -0.565375 0.2531875 -0.565375 0.565375v6.7843125c0 0.3121875 0.25312500000000004 0.5653125 0.565375 0.5653125h6.784249999999999c0.31224999999999997 0 0.565375 -0.25312500000000004 0.565375 -0.5653125V22.349625c0 -0.3121875 -0.25312500000000004 -0.565375 -0.565375 -0.565375Z" stroke-width="0.625"></path>
  <path fill="#ccdaf5" d="M29.134625 21.78425H22.350375c-0.31224999999999997 0 -0.565375 0.2531875 -0.565375 0.565375v6.7843125c0 0.3121875 0.25312500000000004 0.5653125 0.565375 0.5653125h6.784249999999999c0.31224999999999997 0 0.565375 -0.25312500000000004 0.565375 -0.5653125V22.349625c0 -0.3121875 -0.25312500000000004 -0.565375 -0.565375 -0.565375Z" stroke-width="0.625"></path>
</svg>