<svg xmlns="http://www.w3.org/2000/svg" fill="none" viewBox="0 0 30 30" id="Trending-Content--Streamline-Core-Remix" height="30" width="30">
  <desc>
    Trending Content Streamline Icon: https://streamlinehq.com
  </desc>
  <g id="Free Remix/Interface Essential/trending-content--lit-flame-torch-trending">
    <path id="Union" fill="#ccdaf5" fill-rule="evenodd" d="M11.687721428571429 0.30311142857142853c0.3343714285714286 -0.19973721428571425 0.7165928571428571 -0.3052040614285714 1.1060785714285715 -0.3052040614285714 0.36062142857142854 0 0.7150285714285713 0.09041756142857142 1.030992857142857 0.2623662042857143C22.290642857142856 4.197578571428571 27.113142857142854 12.378385714285715 26.814642857142857 19.26672857142857l-0.0006428571428571428 0.011335714285714286c-0.12964285714285714 2.8972928571428573 -1.1695714285714285 5.594507142857143 -3.1986428571428567 7.571935714285714 -2.0320714285714288 1.98 -4.937314285714286 3.1232142857142855 -8.580407142857144 3.1315714285714287 -1.4739857142857142 0.08935714285714286 -2.9512714285714283 -0.11399999999999999 -4.346614285714286 -0.5982857142857143 -1.4100642857142858 -0.4894285714285714 -2.707992857142857 -1.2559285714285713 -3.817414285714286 -2.2542857142857144 -1.1094214285714286 -0.9985714285714286 -2.0079 -2.2088571428571426 -2.6426142857142856 -3.5597142857142856 -0.6346928571428572 -1.3508571428571428 -0.9927642857142857 -2.8151142857142855 -1.0531714285714284 -4.306457142857142l-0.0008142857142857143 -0.019992857142857142 0.00015 0c-0.04427142857142857 -1.7338714285714285 0.3872785714285714 -3.4467642857142855 1.247807142857143 -4.952678571428571 0.8605285714285714 -1.5059142857142858 2.117142857142857 -2.747335714285714 3.6334285714285715 -3.5894785714285713 0.3292071428571428 -0.1828285714285714 0.7201928571428571 -0.21863571428571427 1.0771285714285714 -0.09861428571428571s0.6468428571428572 0.38477142857142854 0.7987071428571428 0.7293642857142857c0.45199285714285714 1.0257214285714285 1.0681928571428572 1.9673785714285714 1.821707142857143 2.789142857142857 0.8551071428571428 -1.2536357142857144 1.2575571428571428 -2.832642857142857 1.2447214285714285 -4.579135714285714 -0.016435714285714286 -2.2365642857142856 -0.7200642857142857 -4.642907142857143 -1.9027071428571427 -6.6951214285714284 -0.23198571428571427 -0.3884142857142857 -0.3166285714285714 -0.8476307142857142 -0.23789999999999997 -1.2936964285714285 0.08014285714285714 -0.45411642857142853 0.32402142857142857 -0.8630892857142857 0.6854571428571429 -1.1494671428571428 0.046049999999999994 -0.03648857142857143 0.09445714285714285 -0.06990857142857143 0.1449 -0.1000392857142857ZM14.438464285714284 3.5982214285714287C20.92585714285714 7.368342857142856 24.360214285714285 13.926214285714286 24.13885714285714 19.140964285714283l-0.0004285714285714286 0.008978571428571428c-0.10285714285714286 2.3394857142857144 -0.9285 4.354842857142857 -2.3925 5.781771428571429 -0.8234142857142857 0.8022857142857143 -1.886442857142857 1.4554285714285715 -3.2130642857142857 1.8715714285714284 0.4745357142857143 -0.69 0.7523357142857143 -1.5257142857142856 0.7523357142857143 -2.426142857142857 0 -2.367 -1.9187785714285712 -4.285757142857143 -4.285714285714286 -4.285757142857143s-4.285714285714286 1.9187571428571428 -4.285714285714286 4.285757142857143c0 0.9085714285714285 0.2828142857142857 1.7513571428571428 0.7652357142857142 2.444785714285714 -1.0387714285714287 -0.3732857142857143 -1.9953214285714287 -0.9452142857142857 -2.816207142857143 -1.683857142857143 -0.8439 -0.7596428571428571 -1.5273642857142857 -1.6802142857142857 -2.0101714285714287 -2.7079285714285715 -0.48135 -1.0244357142857143 -0.7535571428571428 -2.1346714285714286 -0.8007 -3.2656071428571427 -0.029892857142857145 -1.2413142857142858 0.27990000000000004 -2.4672642857142852 0.8960142857142858 -3.5454428571428567 0.38648571428571427 -0.67635 0.8842928571428571 -1.2784071428571426 1.4694 -1.7824071428571429 0.7309714285714285 1.2210642857142855 1.6607571428571428 2.3160857142857143 2.7542142857142857 3.2382642857142856 0.21902142857142856 0.1908857142857143 0.48623571428571427 0.2990142857142857 0.7598785714285714 0.32331428571428567 0.27818571428571426 0.024707142857142858 0.5630357142857142 -0.0372 0.8106428571428572 -0.18677142857142856 0.08532857142857143 -0.051449999999999996 0.16587857142857143 -0.11309999999999999 0.23978571428571427 -0.1848 2.0927357142857144 -1.9979357142857144 2.9148428571428573 -4.749814285714286 2.8946142857142854 -7.50495 -0.014614285714285713 -1.9885499999999998 -0.4648071428571428 -4.033114285714285 -1.2380142857142857 -5.923521428571428Z" clip-rule="evenodd" stroke-width="2.1429"></path>
  </g>
</svg>