<svg xmlns="http://www.w3.org/2000/svg" fill="none" viewBox="-1.125 -1.125 36 36" id="Dial-Pad--Streamline-Ultimate" height="36" width="36">
  <desc>
    Dial Pad Streamline Icon: https://streamlinehq.com
  </desc>
  <path stroke="#ccdaf5" stroke-linecap="round" stroke-linejoin="round" d="M1.0546875 4.21875c0 0.4155046875 0.0818409375 0.826959375 0.24084984375000001 1.2108375 0.15900328125000002 0.383878125 0.39207515624999995 0.732684375 0.68588296875 1.0264921875 0.2938078125 0.2938078125 0.6426140625 0.5268796875 1.0264921875 0.685884375S3.8032453125 7.3828125 4.21875 7.3828125s0.826959375 -0.08184375 1.2108375 -0.2408484375 0.732684375 -0.3920765625 1.0264921875 -0.685884375c0.2938078125 -0.2938078125 0.5268796875 -0.6426140625 0.685884375 -1.0264921875S7.3828125 4.6342546874999995 7.3828125 4.21875s-0.08184375 -0.826959375 -0.2408484375 -1.2108375 -0.3920765625 -0.732684375 -0.685884375 -1.0264921875c-0.2938078125 -0.2938078125 -0.6426140625 -0.5268796875 -1.0264921875 -0.68588296875C5.045709375 1.1365284375 4.6342546874999995 1.0546875 4.21875 1.0546875s-0.826959375 0.0818409375 -1.2108375 0.24084984375000001c-0.383878125 0.15900328125000002 -0.732684375 0.39207515624999995 -1.0264921875 0.68588296875 -0.2938078125 0.2938078125 -0.5268796875 0.6426140625 -0.68588296875 1.0264921875C1.1365284375 3.391790625 1.0546875 3.8032453125 1.0546875 4.21875Z" stroke-width="2.25"></path>
  <path stroke="#ccdaf5" stroke-linecap="round" stroke-linejoin="round" d="M13.7109375 4.21875c0 0.839165625 0.33335156250000003 1.6439484375 0.92671875 2.2373296875 0.5934375 0.59338125 1.398234375 0.9267328125 2.23734375 0.9267328125s1.6439062500000001 -0.33335156250000003 2.23734375 -0.9267328125c0.593296875 -0.59338125 0.92671875 -1.3981640625 0.92671875 -2.2373296875 0 -0.839165625 -0.33342187500000003 -1.6439484375 -0.92671875 -2.2373296875C18.51890625 1.3880432812499999 17.714109375 1.0546875 16.875 1.0546875s-1.6439062500000001 0.33335578125000004 -2.23734375 0.9267328125C14.0442890625 2.5748015625 13.7109375 3.379584375 13.7109375 4.21875Z" stroke-width="2.25"></path>
  <path stroke="#ccdaf5" stroke-linecap="round" stroke-linejoin="round" d="M26.3671875 4.21875c0 0.839165625 0.33342187500000003 1.6439484375 0.92671875 2.2373296875 0.5934375 0.59338125 1.398234375 0.9267328125 2.23734375 0.9267328125s1.6439062500000001 -0.33335156250000003 2.23734375 -0.9267328125c0.593296875 -0.59338125 0.92671875 -1.3981640625 0.92671875 -2.2373296875 0 -0.839165625 -0.33342187500000003 -1.6439484375 -0.92671875 -2.2373296875C31.17515625 1.3880432812499999 30.370359375 1.0546875 29.53125 1.0546875s-1.6439062500000001 0.33335578125000004 -2.23734375 0.9267328125c-0.593296875 0.59338125 -0.92671875 1.3981640625 -0.92671875 2.2373296875Z" stroke-width="2.25"></path>
  <path stroke="#ccdaf5" stroke-linecap="round" stroke-linejoin="round" d="M1.0546875 16.875c0 0.415546875 0.0818409375 0.8270156249999999 0.24084984375000001 1.21078125 0.15900328125000002 0.38390625 0.39207515624999995 0.732796875 0.68588296875 1.0265625 0.2938078125 0.29376562500000003 0.6426140625 0.526921875 1.0264921875 0.685828125 0.383878125 0.159046875 0.7953328125 0.24089062500000002 1.2108375 0.24089062500000002s0.826959375 -0.08184375 1.2108375 -0.24089062500000002c0.383878125 -0.15890625 0.732684375 -0.3920625 1.0264921875 -0.685828125 0.2938078125 -0.29376562500000003 0.5268796875 -0.64265625 0.685884375 -1.0265625 0.15900468750000002 -0.38376562499999994 0.2408484375 -0.795234375 0.2408484375 -1.21078125s-0.08184375 -0.8270156249999999 -0.2408484375 -1.21078125c-0.15900468750000002 -0.38390625 -0.3920765625 -0.732796875 -0.685884375 -1.0265625 -0.2938078125 -0.29376562500000003 -0.6426140625 -0.526921875 -1.0264921875 -0.6858703125C5.045709375 13.792781249999999 4.6342546874999995 13.7109375 4.21875 13.7109375s-0.826959375 0.08184375 -1.2108375 0.2408484375c-0.383878125 0.1589484375 -0.732684375 0.39210468750000005 -1.0264921875 0.6858703125 -0.2938078125 0.29376562500000003 -0.5268796875 0.64265625 -0.68588296875 1.0265625C1.1365284375 16.047984375 1.0546875 16.459453125 1.0546875 16.875Z" stroke-width="2.25"></path>
  <path stroke="#ccdaf5" stroke-linecap="round" stroke-linejoin="round" d="M13.7109375 16.875c0 0.839109375 0.33335156250000003 1.6439062500000001 0.92671875 2.23734375 0.5934375 0.593296875 1.398234375 0.92671875 2.23734375 0.92671875s1.6439062500000001 -0.33342187500000003 2.23734375 -0.92671875c0.593296875 -0.5934375 0.92671875 -1.398234375 0.92671875 -2.23734375s-0.33342187500000003 -1.6439062500000001 -0.92671875 -2.23734375c-0.5934375 -0.5933671875 -1.398234375 -0.92671875 -2.23734375 -0.92671875s-1.6439062500000001 0.33335156250000003 -2.23734375 0.92671875c-0.5933671875 0.5934375 -0.92671875 1.398234375 -0.92671875 2.23734375Z" stroke-width="2.25"></path>
  <path stroke="#ccdaf5" stroke-linecap="round" stroke-linejoin="round" d="M26.3671875 16.875c0 0.839109375 0.33342187500000003 1.6439062500000001 0.92671875 2.23734375 0.5934375 0.593296875 1.398234375 0.92671875 2.23734375 0.92671875s1.6439062500000001 -0.33342187500000003 2.23734375 -0.92671875c0.593296875 -0.5934375 0.92671875 -1.398234375 0.92671875 -2.23734375s-0.33342187500000003 -1.6439062500000001 -0.92671875 -2.23734375c-0.5934375 -0.5933671875 -1.398234375 -0.92671875 -2.23734375 -0.92671875s-1.6439062500000001 0.33335156250000003 -2.23734375 0.92671875c-0.593296875 0.5934375 -0.92671875 1.398234375 -0.92671875 2.23734375Z" stroke-width="2.25"></path>
  <path stroke="#ccdaf5" stroke-linecap="round" stroke-linejoin="round" d="M13.7109375 29.53125c0 0.839109375 0.33335156250000003 1.6439062500000001 0.92671875 2.23734375 0.5934375 0.593296875 1.398234375 0.92671875 2.23734375 0.92671875s1.6439062500000001 -0.33342187500000003 2.23734375 -0.92671875c0.593296875 -0.5934375 0.92671875 -1.398234375 0.92671875 -2.23734375s-0.33342187500000003 -1.6439062500000001 -0.92671875 -2.23734375c-0.5934375 -0.593296875 -1.398234375 -0.92671875 -2.23734375 -0.92671875s-1.6439062500000001 0.33342187500000003 -2.23734375 0.92671875c-0.5933671875 0.5934375 -0.92671875 1.398234375 -0.92671875 2.23734375Z" stroke-width="2.25"></path>
</svg>