<svg xmlns="http://www.w3.org/2000/svg" viewBox="0 0 35 35" fill="#ccdaf5" id="Seal-Warning-Fill--Streamline-Phosphor-Fill" height="35" width="35">
  <desc>
    Seal Warning Fill Streamline Icon: https://streamlinehq.com
  </desc>
  <path d="M32.4848125 13.6443125c-0.5772812500000001 -0.6033125 -1.1744687500000002 -1.225 -1.3995625 -1.77165625 -0.20825000000000002 -0.50071875 -0.2205 -1.3306562499999999 -0.23274999999999998 -2.1345625 -0.022968750000000003 -1.4945000000000002 -0.047468750000000004 -3.1880625 -1.225 -4.36559375s-2.87109375 -1.2020312499999999 -4.36559375 -1.225c-0.8039062499999999 -0.01225 -1.63384375 -0.0245 -2.1345625 -0.23274999999999998 -0.545125 -0.22509375 -1.16834375 -0.8222812500000001 -1.77165625 -1.3995625C20.299125 1.4999687499999999 19.098625000000002 0.35000000000000003 17.5 0.35000000000000003s-2.79759375 1.14996875 -3.8556874999999997 2.1651875c-0.6033125 0.5772812500000001 -1.225 1.1744687500000002 -1.77165625 1.3995625 -0.49765625 0.20825000000000002 -1.3306562499999999 0.2205 -2.1345625 0.23274999999999998 -1.4945000000000002 0.022968750000000003 -3.1880625 0.047468750000000004 -4.36559375 1.225s-1.1943750000000002 2.87109375 -1.225 4.36559375c-0.01225 0.8039062499999999 -0.0245 1.63384375 -0.23274999999999998 2.1345625 -0.22509375 0.545125 -0.8222812500000001 1.16834375 -1.3995625 1.77165625C1.4999687499999999 14.700875 0.35000000000000003 15.901375 0.35000000000000003 17.5s1.14996875 2.79759375 2.1651875 3.8556874999999997c0.5772812500000001 0.6033125 1.1744687500000002 1.225 1.3995625 1.77165625 0.20825000000000002 0.50071875 0.2205 1.3306562499999999 0.23274999999999998 2.1345625 0.022968750000000003 1.4945000000000002 0.047468750000000004 3.1880625 1.225 4.36559375s2.87109375 1.2020312499999999 4.36559375 1.225c0.8039062499999999 0.01225 1.63384375 0.0245 2.1345625 0.23274999999999998 0.545125 0.22509375 1.16834375 0.8222812500000001 1.77165625 1.3995625 1.0565625 1.01521875 2.2570625 2.1651875 3.8556874999999997 2.1651875s2.79759375 -1.14996875 3.8556874999999997 -2.1651875c0.6033125 -0.5772812500000001 1.225 -1.1744687500000002 1.77165625 -1.3995625 0.50071875 -0.20825000000000002 1.3306562499999999 -0.2205 2.1345625 -0.23274999999999998 1.4945000000000002 -0.022968750000000003 3.1880625 -0.047468750000000004 4.36559375 -1.225s1.2020312499999999 -2.87109375 1.225 -4.36559375c0.01225 -0.8039062499999999 0.0245 -1.63384375 0.23274999999999998 -2.1345625 0.22509375 -0.545125 0.8222812500000001 -1.16834375 1.3995625 -1.77165625 1.01521875 -1.0565625 2.1651875 -2.2570625 2.1651875 -3.8556874999999997s-1.14996875 -2.79759375 -2.1651875 -3.8556874999999997ZM16.275000000000002 10.149999999999999c0 -0.9430039062500001 1.020837890625 -1.532384765625 1.8375 -1.0608828125 0.37901171875 0.21883203125 0.6125 0.623232421875 0.6125 1.0608828125v8.575c0 0.9430039062500001 -1.020837890625 1.532384765625 -1.8375 1.0608828125 -0.37901171875 -0.21883203125 -0.6125 -0.623232421875 -0.6125 -1.0608828125ZM17.5 26.075c-1.414505859375 0.000068359375 -2.298556640625 -1.531140625 -1.591365234375 -2.7561816406250004 0.707205078125 -1.22502734375 2.475333984375 -1.2251093750000002 3.1826484375 -0.00013671875 0.16130078125 0.27934375 0.246216796875 0.5962441406250001 0.246216796875 0.918818359375 0 1.014794921875 -0.822705078125 1.837458984375 -1.8375 1.8375Z" stroke-width="0.1367"></path>
</svg>