<svg xmlns="http://www.w3.org/2000/svg" viewBox="0 0 36 36" id="Faucet-Drip--Streamline-Font-Awesome" height="36" width="36">
  <desc>
    Faucet Drip Streamline Icon: https://streamlinehq.com
  </desc>
<!--! Font Awesome Free 6.5.2 by @fontawesome - https://fontawesome.com License - https://fontawesome.com/license/free (Icons: CC BY 4.0, Fonts: SIL OFL 1.1, Code: MIT License) Copyright 2024 Fonticons, Inc.-->
  <path d="M15.75 0c1.2445312499999999 0 2.25 1.0054687500000001 2.25 2.25v0.84375l6.75 -0.84375c1.2445312499999999 0 2.25 1.0054687500000001 2.25 2.25s-1.0054687500000001 2.25 -2.25 2.25l-6.75 -0.84375 -2.1796875 -0.27421875 -0.0703125 -0.00703125 -0.0703125 0.00703125 -2.1796875 0.27421875 -6.75 0.84375c-1.2445312499999999 0 -2.25 -1.0054687500000001 -2.25 -2.25s1.0054687500000001 -2.25 2.25 -2.25l6.75 0.84375V2.25c0 -1.2445312499999999 1.0054687500000001 -2.25 2.25 -2.25zM0 15.75c0 -1.2445312499999999 1.0054687500000001 -2.25 2.25 -2.25h6.75l1.5890625 -1.5890625c0.421875 -0.421875 0.9914062499999999 -0.6609375000000001 1.5890625 -0.6609375000000001H13.5v-3.0796875l2.25 -0.28125 2.25 0.28125V11.25h1.3148437499999999c0.59765625 0 1.1671875 0.23906249999999998 1.5890625 0.6609375000000001L22.5 13.5h2.25c6.215625 0 11.25 5.034375 11.25 11.25 0 1.2445312499999999 -1.0054687500000001 2.25 -2.25 2.25h-4.5c-1.2445312499999999 0 -2.25 -1.0054687500000001 -2.25 -2.25s-1.0054687500000001 -2.25 -2.25 -2.25h-2.5382812500000003c-1.4203124999999999 2.0390625 -3.7898437499999997 3.375 -6.46171875 3.375s-5.0414062500000005 -1.3359375 -6.46171875 -3.375H2.25c-1.2445312499999999 0 -2.25 -1.0054687500000001 -2.25 -2.25v-4.5zm30.712500000000002 14.020312500000001c0.13359374999999998 -0.31640625 0.44296874999999997 -0.5203125000000001 0.7875 -0.5203125000000001s0.646875 0.20390624999999998 0.7875 0.5203125000000001l1.2796874999999999 2.9812499999999997c0.1265625 0.28828125 0.18984375 0.6046874999999999 0.18984375 0.9210937499999999v0.07734375c0 1.2445312499999999 -1.0054687500000001 2.25 -2.25 2.25s-2.25 -1.0054687500000001 -2.25 -2.25v-0.08437499999999999c0 -0.31640625 0.06328125 -0.6257812500000001 0.18984375 -0.9210937499999999l1.2796874999999999 -2.9812499999999997z" fill="#ccdaf5" stroke-width="0.0703"></path>
</svg>