<svg xmlns="http://www.w3.org/2000/svg" fill="none" viewBox="-1.145 -1.145 32 32" id="Hotel-One-Star--Streamline-Core" height="32" width="32">
  <desc>
    Hotel One Star Streamline Icon: https://streamlinehq.com
  </desc>
  <g id="hotel-one-star--one-star-reviews-review-rating-hotel-star">
    <path id="Vector 2" stroke="#ccdaf5" stroke-linecap="round" stroke-linejoin="round" d="m14.854999999999999 10.758118328571427 0 9.16763592142857" stroke-width="2.29"></path>
    <path id="Vector 3" stroke="#ccdaf5" stroke-linecap="round" stroke-linejoin="round" d="m11.799114285714284 13.050032614285714 0.7639714285714284 0c1.2657945499999996 0 2.291914285714286 -1.0261197357142857 2.291914285714286 -2.291914285714286v0" stroke-width="2.29"></path>
    <path id="Vector 1" stroke="#ccdaf5" stroke-linecap="round" stroke-linejoin="round" d="M17.910885714285712 19.925648142857142H11.799114285714284" stroke-width="2.29"></path>
    <path id="Vector" stroke="#ccdaf5" stroke-linecap="round" stroke-linejoin="round" d="M12.814602085714284 2.721096457142857c0.21656467857142855 -0.34569707142857137 0.51739965 -0.6307051014285714 0.8742804142857142 -0.8282744792857142C14.045784485714284 1.6952547221428569 14.447018035714285 1.5916071428571428 14.854936335714285 1.5916071428571428c0.4079395214285714 0 0.8091730714285713 0.10364757928571428 1.1660538357142856 0.30121483499999996 0.35690198571428566 0.19756937785714285 0.6577369571428571 0.48257740785714276 0.8742804142857142 0.8282744792857142l3.9582632999999996 6.263822964285714 5.162027614285713 0.6325046785714284c0.4280362142857142 0.047833099999999996 0.8350632142857142 0.2116200857142857 1.1769404285714284 0.4736622857142857 0.3418772142857142 0.2620634214285714 0.6058717857142856 0.6124504285714285 0.7633347857142857 1.0134293214285712 0.157463 0.40097889285714283 0.20245242857142853 0.8373339071428569 0.13029957142857143 1.2620171357142858 -0.07236507142857142 0.4246832285714285 -0.25911364285714283 0.8215876071428571 -0.5402975714285714 1.147951957142857l-4.305191214285714 4.9376110071428565 1.387457 6.835146264285714c0.08700785714285714 0.44586221428571426 0.04498942857142857 0.9074282857142856 -0.12138657142857141 1.330371357142857 -0.1661637857142857 0.4227308571428571 -0.44968207142857136 0.7894371428571427 -0.8170249999999999 1.0568271428571427 -0.3722238571428571 0.2625090714285714 -0.8104463571428571 0.41487892857142855 -1.265009357142857 0.44013242857142854 -0.45456299999999994 0.025253499999999998 -0.907003857142857 -0.07767042857142856 -1.3059030499999997 -0.29731221428571425l-6.263844185714285 -3.427897357142857 -6.263822964285714 3.427897357142857c-0.39881430714285715 0.21964178571428566 -0.8513188285714285 0.32256571428571423 -1.3059030499999997 0.29731221428571425 -0.4545842214285714 -0.025253499999999998 -0.8928916071428571 -0.17762335714285712 -1.2649244714285715 -0.44013242857142854 -0.36740659285714283 -0.26738999999999996 -0.6508824357142856 -0.6340962857142857 -0.8171523285714285 -1.0568271428571427 -0.16624867142857142 -0.4229430714285714 -0.20837320714285712 -0.8845091428571428 -0.12140779285714283 -1.330371357142857l1.3874357785714284 -6.835146264285714 -4.305106328571428 -4.9376110071428565C1.8828670057142856 13.188120449999998 1.69608448 12.79121607142857 1.6238361264285712 12.366532842857142c-0.07224835357142856 -0.4246832285714285 -0.027218604285714283 -0.8610382428571427 0.130233785 -1.2620171357142858 0.15745026714285712 -0.40097889285714283 0.42135995285714284 -0.7513658999999999 0.7632583885714285 -1.0134293214285712 0.3419196571428571 -0.2620422 0.7488617714285714 -0.4258291857142857 1.1769828714285713 -0.4736622857142857l5.162048835714285 -0.6325046785714284 3.9582420785714283 -6.263822964285714Z" stroke-width="2.29"></path>
  </g>
</svg>