<svg xmlns="http://www.w3.org/2000/svg" viewBox="0 0 35 35" id="Flow-1--Streamline-Ultimate" height="35" width="35">
  <desc>
    Flow 1 Streamline Icon: https://streamlinehq.com
  </desc>
  <path d="M34.65 16.6551875c0.007875 -6.3896875 -4.934270833333334 -11.693645833333331 -11.3085 -12.136687499999999C22.272104166666665 1.133125 17.939104166666667 0.17485416666666667 15.541895833333331 2.7935833333333333c-0.45368749999999997 0.4955416666666666 -0.7934791666666666 1.0842708333333333 -0.9958958333333332 1.7249166666666667H9.4058125C8.306666666666667 1.1195625 3.9402708333333334 0.18506250000000002 1.5462708333333333 2.8364583333333333 -0.8477291666666666 5.487854166666667 0.5261666666666667 9.736416666666667 4.0193125 10.484104166666667c2.327354166666667 0.49802083333333336 4.654125 -0.8453958333333332 5.3865 -3.109895833333333h5.1401875c1.1035208333333333 3.3742916666666667 5.4461458333333335 4.2888125 7.816666666666666 1.645875 0.4275833333333333 -0.4767291666666667 0.7511875 -1.0373125 0.9502499999999999 -1.645875 7.1115625 0.5595625 10.950333333333333 8.6078125 6.910020833333332 14.486791666666665 -1.5836041666666667 2.3040208333333334 -4.122708333333333 3.770083333333333 -6.910020833333332 3.989416666666666 -1.1035208333333333 -3.3744374999999995 -5.4461458333333335 -4.2888125 -7.816666666666666 -1.645875 -0.4275833333333333 0.4767291666666667 -0.7511875 1.0371666666666668 -0.9502499999999999 1.645875H6.678583333333333l2.555875 -2.555875c0.5632083333333333 -0.5585416666666666 0.5632083333333333 -1.4689791666666667 0 -2.0275208333333334 -0.5569375 -0.5535833333333333 -1.4562916666666668 -0.5535833333333333 -2.0132291666666666 0l-4.997416666666666 4.997416666666666c-0.1334375 0.13591666666666666 -0.24004166666666665 0.29575 -0.314125 0.4711875 -0.14277083333333332 0.3476666666666666 -0.14277083333333332 0.737625 0 1.0851458333333333 0.07408333333333332 0.1754375 0.18068749999999997 0.3352708333333333 0.314125 0.4711875l4.997416666666666 4.997416666666666c0.7803541666666667 0.7749583333333333 2.107 0.4144583333333333 2.3878749999999997 -0.6488125 0.130375 -0.49349999999999994 -0.012395833333333333 -1.0190833333333333 -0.37464583333333334 -1.3787083333333332l-2.555875 -2.470125h7.867416666666666c1.069395833333333 3.385375 5.402541666666666 4.343645833333333 7.799604166666667 1.7249166666666667 0.45368749999999997 -0.4955416666666666 0.793625 -1.0842708333333333 0.9958958333333332 -1.7249166666666667 6.374229166666666 -0.44304166666666667 11.316374999999999 -5.747 11.3085 -12.136541666666666Z" fill="#ccdaf5" stroke-width="1.4583"></path>
</svg>