<svg xmlns="http://www.w3.org/2000/svg" viewBox="0 0 30 30" id="Rss-Feed--Streamline-Ultimate" height="30" width="30">
  <desc>
    Rss Feed Streamline Icon: https://streamlinehq.com
  </desc>
  <g id="Rss-Feed--Streamline-Ultimate.svg">
    <path d="M1.875 10.337499999999999a1.875 1.875 0 0 0 0 3.75 13.8875 13.8875 0 0 1 14.299999999999999 13.75 1.875 1.875 0 0 0 3.75 0c0 -9.825000000000001 -7.925 -17.5 -18.05 -17.5Z" fill="#ccdaf5" stroke-width="1.25"></path>
    <path d="M1.9125 0.3a1.875 1.875 0 0 0 0 3.75c13.65 0 24.3375 10.4375 24.3375 23.75a1.875 1.875 0 1 0 3.75 0c0 -15.4125 -12.337499999999999 -27.5 -28.0875 -27.5Z" fill="#ccdaf5" stroke-width="1.25"></path>
    <path d="M0 25.3125a4.375 4.375 0 1 0 8.75 0 4.375 4.375 0 1 0 -8.75 0" fill="#ccdaf5" stroke-width="1.25"></path>
  </g>
</svg>