<svg xmlns="http://www.w3.org/2000/svg" fill="none" viewBox="0 0 26 26" id="Wifi-Horizontal--Streamline-Core" height="26" width="26">
  <desc>
    Wifi Horizontal Streamline Icon: https://streamlinehq.com
  </desc>
  <g id="wifi-horizontal--wireless-wifi-internet-server-network-horizontal-connection">
    <path id="Union" fill="#ccdaf5" fill-rule="evenodd" d="M7.081285714285714 4.145142857142858a1.3928571428571428 1.3928571428571428 0 1 0 -1.7271428571428573 -2.185857142857143A13.728000000000002 13.728000000000002 0 0 0 1.522857142857143 6.791571428571429a15.241571428571431 15.241571428571431 0 0 0 -1.4857142857142858 6.247428571428571 15.195142857142859 15.195142857142859 0 0 0 1.4912857142857143 6.175000000000001 13.681571428571429 13.681571428571429 0 0 0 3.8480000000000003 4.8304285714285715 1.3928571428571428 1.3928571428571428 0 0 0 1.7197142857142858 -2.1914285714285713 10.895857142857142 10.895857142857142 0 0 1 -3.0605714285714285 -3.849857142857143A12.40757142857143 12.40757142857143 0 0 1 2.822857142857143 13c0.055714285714285716 -1.755 0.47171428571428575 -3.4654285714285717 1.209 -4.999428571428572a10.959 10.959 0 0 1 3.0494285714285714 -3.855428571428572Zm3.888857142857143 3.8145714285714285a1.3928571428571428 1.3928571428571428 0 1 0 -1.5692857142857144 -2.302857142857143 9.386000000000001 9.386000000000001 0 0 0 -2.915714285714286 3.1794285714285713 9.085142857142857 9.085142857142857 0 0 0 -1.1514285714285715 4.219428571428571 9.062857142857142 9.062857142857142 0 0 0 1.1514285714285715 4.119142857142857c0.7075714285714286 1.264714285714286 1.7085714285714286 2.349285714285714 2.9194285714285715 3.1701428571428574a1.3928571428571428 1.3928571428571428 0 0 0 1.5618571428571428 -2.3065714285714285 6.566857142857143 6.566857142857143 0 0 1 -2.0502857142857147 -2.2248571428571426 6.267857142857143 6.267857142857143 0 0 1 -0.7967142857142857 -2.8042857142857143 6.299428571428572 6.299428571428572 0 0 1 0.7985714285714286 -2.8154285714285714 6.6002857142857145 6.6002857142857145 0 0 1 2.052142857142857 -2.2341428571428574Zm3.693857142857143 -1.9351428571428573a1.3928571428571428 1.3928571428571428 0 0 1 1.9351428571428573 -0.36771428571428577 9.386000000000001 9.386000000000001 0 0 1 2.915714285714286 3.1794285714285713 9.085142857142857 9.085142857142857 0 0 1 1.1514285714285715 4.219428571428571 9.051714285714285 9.051714285714285 0 0 1 -1.1514285714285715 4.119142857142857 9.350714285714286 9.350714285714286 0 0 1 -2.9194285714285715 3.1701428571428574 1.3928571428571428 1.3928571428571428 0 0 1 -1.5618571428571428 -2.3065714285714285 6.566857142857143 6.566857142857143 0 0 0 2.0502857142857147 -2.2248571428571426 6.295714285714286 6.295714285714286 0 0 0 0.7967142857142857 -2.8042857142857143 6.299428571428572 6.299428571428572 0 0 0 -0.7985714285714286 -2.8154285714285714 6.6002857142857145 6.6002857142857145 0 0 0 -2.052142857142857 -2.2341428571428574 1.3928571428571428 1.3928571428571428 0 0 1 -0.3658571428571429 -1.9351428571428573Zm5.98 -4.067142857142858a1.3928571428571428 1.3928571428571428 0 1 0 -1.7271428571428573 2.1877142857142857 10.946 10.946 0 0 1 3.0512857142857146 3.855428571428572A12.442857142857143 12.442857142857143 0 0 1 23.175285714285714 13a12.409428571428572 12.409428571428572 0 0 1 -1.2108571428571429 5.003142857142858 10.895857142857142 10.895857142857142 0 0 1 -3.0605714285714285 3.849857142857143 1.3928571428571428 1.3928571428571428 0 0 0 1.7197142857142858 2.1914285714285713 13.681571428571429 13.681571428571429 0 0 0 3.8480000000000003 -4.828571428571429 15.197000000000001 15.197000000000001 0 0 0 1.4912857142857143 -6.2548571428571424 15.239714285714285 15.239714285714285 0 0 0 -1.4857142857142858 -6.169428571428572 13.728000000000002 13.728000000000002 0 0 0 -3.831285714285715 -4.832285714285714ZM10.678571428571429 13a2.3214285714285716 2.3214285714285716 0 1 1 4.642857142857143 0 2.3214285714285716 2.3214285714285716 0 0 1 -4.642857142857143 0Z" clip-rule="evenodd" stroke-width="1.8571"></path>
  </g>
</svg>