<svg xmlns="http://www.w3.org/2000/svg" viewBox="0 0 33 33" id="Rss-Feed--Streamline-Ultimate" height="33" width="33">
  <desc>
    Rss Feed Streamline Icon: https://streamlinehq.com
  </desc>
  <g id="Rss-Feed--Streamline-Ultimate.svg">
    <path d="M2.0625 11.37125a2.0625 2.0625 0 0 0 0 4.125 15.27625 15.27625 0 0 1 15.729999999999999 15.125 2.0625 2.0625 0 0 0 4.125 0c0 -10.807500000000001 -8.7175 -19.25 -19.855 -19.25Z" fill="#ccdaf5" stroke-width="1.375"></path>
    <path d="M2.1037500000000002 0.32999999999999996a2.0625 2.0625 0 0 0 0 4.125c15.015 0 26.77125 11.48125 26.77125 26.125a2.0625 2.0625 0 1 0 4.125 0c0 -16.95375 -13.57125 -30.25 -30.89625 -30.25Z" fill="#ccdaf5" stroke-width="1.375"></path>
    <path d="M0 27.84375a4.8125 4.8125 0 1 0 9.625 0 4.8125 4.8125 0 1 0 -9.625 0" fill="#ccdaf5" stroke-width="1.375"></path>
  </g>
</svg>