<svg xmlns="http://www.w3.org/2000/svg" viewBox="0 0 25 25" id="Plug--Streamline-Font-Awesome" height="25" width="25">
  <desc>
    Plug Streamline Icon: https://streamlinehq.com
  </desc>
<!--! Font Awesome Free 6.5.2 by @fontawesome - https://fontawesome.com License - https://fontawesome.com/license/free (Icons: CC BY 4.0, Fonts: SIL OFL 1.1, Code: MIT License) Copyright 2024 Fonticons, Inc.-->
  <path d="M7.90625 0.25c-0.84697265625 0 -1.53125 0.68427734375 -1.53125 1.53125v4.593750000000001h3.0625V1.78125c0 -0.84697265625 -0.68427734375 -1.53125 -1.53125 -1.53125Zm9.187500000000002 0c-0.84697265625 0 -1.53125 0.68427734375 -1.53125 1.53125v4.593750000000001h3.0625V1.78125c0 -0.84697265625 -0.68427734375 -1.53125 -1.53125 -1.53125ZM4.843750000000001 7.90625c-0.84697265625 0 -1.53125 0.68427734375 -1.53125 1.53125s0.68427734375 1.53125 1.53125 1.53125V12.5c0 3.7037109375000004 2.6318359375 6.794921875000001 6.125 7.503125000000001v3.2156250000000006c0 0.84697265625 0.68427734375 1.53125 1.53125 1.53125s1.53125 -0.68427734375 1.53125 -1.53125v-3.2156250000000006C17.524414062500004 19.294921875 20.156250000000004 16.203710937500002 20.156250000000004 12.5v-1.53125c0.84697265625 0 1.53125 -0.68427734375 1.53125 -1.53125s-0.68427734375 -1.53125 -1.53125 -1.53125H4.843750000000001Z" fill="#ccdaf5" stroke-width="0.0651"></path>
</svg>