<svg xmlns="http://www.w3.org/2000/svg" viewBox="0 0 24 24" fill="none" stroke="#ccdaf5" stroke-linecap="round" stroke-linejoin="round" id="Layout-Grid--Streamline-Tabler" height="24" width="24">
  <desc>
    Layout Grid Streamline Icon: https://streamlinehq.com
  </desc>
  <path d="M4 5a1 1 0 0 1 1 -1h4a1 1 0 0 1 1 1v4a1 1 0 0 1 -1 1H5a1 1 0 0 1 -1 -1z" stroke-width="2"></path>
  <path d="M14 5a1 1 0 0 1 1 -1h4a1 1 0 0 1 1 1v4a1 1 0 0 1 -1 1h-4a1 1 0 0 1 -1 -1z" stroke-width="2"></path>
  <path d="M4 15a1 1 0 0 1 1 -1h4a1 1 0 0 1 1 1v4a1 1 0 0 1 -1 1H5a1 1 0 0 1 -1 -1z" stroke-width="2"></path>
  <path d="M14 15a1 1 0 0 1 1 -1h4a1 1 0 0 1 1 1v4a1 1 0 0 1 -1 1h-4a1 1 0 0 1 -1 -1z" stroke-width="2"></path>
</svg>