<svg role="img" viewBox="0 0 32 32" xmlns="http://www.w3.org/2000/svg" id="Nestjs--Streamline-Simple-Icons" height="32" width="32">
  <desc>
    Nestjs Streamline Icon: https://streamlinehq.com
  </desc>
  <title>NestJS</title>
  <path d="M18.84133333333333 0.06266666666666666c-0.23066666666666663 0 -0.44533333333333336 0.049333333333333326 -0.6439999999999999 0.11599999999999999 0.42133333333333334 0.27999999999999997 0.6533333333333333 0.6533333333333333 0.7679999999999999 1.0746666666666667 0.009333333333333332 0.057333333333333326 0.025333333333333333 0.09866666666666665 0.03333333333333333 0.156a0.908 0.908 0 0 1 0.017333333333333333 0.14933333333333332c0.032 0.7266666666666667 -0.19066666666666665 0.8186666666666667 -0.3466666666666667 1.248 -0.24 0.5533333333333332 -0.17333333333333334 1.148 0.11466666666666665 1.6266666666666665a0.9866666666666666 0.9866666666666666 0 0 0 0.09866666666666665 0.18266666666666667c-0.3133333333333333 -2.0906666666666665 1.4306666666666665 -2.404 1.752 -3.0573333333333332 0.025333333333333333 -0.5706666666666667 -0.44533333333333336 -0.9506666666666665 -0.8173333333333332 -1.2146666666666666a1.8266666666666667 1.8266666666666667 0 0 0 -0.976 -0.27999999999999997zM21.46933333333333 0.5333333333333333c-0.032 0.19066666666666665 -0.008 0.1413333333333333 -0.016 0.24 -0.008 0.06666666666666667 -0.008 0.14933333333333332 -0.016 0.21466666666666667 -0.017333333333333333 0.06666666666666667 -0.03333333333333333 0.13333333333333333 -0.05866666666666666 0.19866666666666666 -0.016 0.06666666666666667 -0.039999999999999994 0.13333333333333333 -0.06666666666666667 0.19866666666666666l-0.08933333333333333 0.1893333333333333c-0.026666666666666665 0.03333333333333333 -0.04133333333333333 0.06666666666666667 -0.06666666666666667 0.09999999999999999l-0.049333333333333326 0.07333333333333333a2.8693333333333335 2.8693333333333335 0 0 1 -0.124 0.16533333333333333c-0.049333333333333326 0.050666666666666665 -0.09066666666666667 0.108 -0.14933333333333332 0.14933333333333332v0.008c-0.049333333333333326 0.04133333333333333 -0.09866666666666665 0.09066666666666667 -0.15733333333333333 0.13333333333333333 -0.17333333333333334 0.132 -0.3706666666666667 0.23066666666666663 -0.5533333333333332 0.3546666666666667 -0.057333333333333326 0.039999999999999994 -0.11599999999999999 0.07466666666666666 -0.16533333333333333 0.124a1.208 1.208 0 0 0 -0.15733333333333333 0.132c-0.057333333333333326 0.049333333333333326 -0.09866666666666665 0.09866666666666665 -0.148 0.15733333333333333 -0.04133333333333333 0.049333333333333326 -0.09066666666666667 0.10666666666666666 -0.124 0.16533333333333333a2.1093333333333333 2.1093333333333333 0 0 0 -0.11599999999999999 0.17333333333333334c-0.03333333333333333 0.06666666666666667 -0.057333333333333326 0.124 -0.09066666666666667 0.1893333333333333 -0.025333333333333333 0.06666666666666667 -0.049333333333333326 0.124 -0.06666666666666667 0.19066666666666665a2.676 2.676 0 0 0 -0.057333333333333326 0.20666666666666667c-0.008 0.03333333333333333 -0.008 0.07466666666666666 -0.016 0.10666666666666666 -0.009333333333333332 0.03333333333333333 -0.009333333333333332 0.06666666666666667 -0.017333333333333333 0.09999999999999999 0 0.06666666666666667 -0.008 0.13999999999999999 -0.008 0.20666666666666667 0 0.049333333333333326 0 0.09866666666666665 0.008 0.148 0 0.06666666666666667 0.008 0.13333333333333333 0.025333333333333333 0.20666666666666667 0.008 0.06666666666666667 0.023999999999999997 0.13333333333333333 0.039999999999999994 0.19999999999999998 0.026666666666666665 0.06533333333333333 0.042666666666666665 0.13066666666666665 0.06666666666666667 0.1973333333333333 0.017333333333333333 0.039999999999999994 0.04133333333333333 0.08266666666666667 0.05866666666666666 0.11599999999999999l-1.901333333333333 -0.736c-0.3213333333333333 -0.09066666666666667 -0.6359999999999999 -0.17333333333333334 -0.9586666666666666 -0.248l-0.52 -0.124c-0.496 -0.09866666666666665 -1 -0.17333333333333334 -1.5039999999999998 -0.22266666666666668 -0.017333333333333333 0 -0.025333333333333333 -0.008 -0.04133333333333333 -0.008A14.776 14.776 0 0 0 11.866666666666667 3.8066666666666666c-0.504 0.03333333333333333 -1.008 0.09866666666666665 -1.5119999999999998 0.18133333333333335a16.599999999999998 16.599999999999998 0 0 0 -1.1159999999999999 0.23199999999999998l-0.372 0.09866666666666665c-0.12266666666666666 0.049333333333333326 -0.24 0.10666666666666666 -0.3546666666666667 0.15733333333333333l-0.2733333333333333 0.124c-0.016 0.008 -0.032 0.008 -0.039999999999999994 0.016 -0.08399999999999999 0.04133333333333333 -0.15733333333333333 0.07466666666666666 -0.23199999999999998 0.11599999999999999a3.6506666666666665 3.6506666666666665 0 0 0 -0.31466666666666665 0.15733333333333333c-0.057333333333333326 0.023999999999999997 -0.11466666666666665 0.057333333333333326 -0.16533333333333333 0.08266666666666667a0.7453333333333334 0.7453333333333334 0 0 1 -0.07333333333333333 0.039999999999999994c-0.07466666666666666 0.042666666666666665 -0.14933333333333332 0.08399999999999999 -0.216 0.12533333333333332a2.08 2.08 0 0 0 -0.1973333333333333 0.124c-0.05866666666666666 0.039999999999999994 -0.11599999999999999 0.07333333333333333 -0.16533333333333333 0.11466666666666665 -0.008 0.009333333333333332 -0.017333333333333333 0.009333333333333332 -0.025333333333333333 0.017333333333333333 -0.049333333333333326 0.03333333333333333 -0.10666666666666666 0.07466666666666666 -0.15733333333333333 0.11599999999999999l-0.016 0.016 -0.124 0.09866666666666665c-0.016 0.009333333333333332 -0.03333333333333333 0.025333333333333333 -0.049333333333333326 0.03333333333333333 -0.04133333333333333 0.03333333333333333 -0.08266666666666667 0.07466666666666666 -0.124 0.10666666666666666 -0.008 0.017333333333333333 -0.025333333333333333 0.026666666666666665 -0.03333333333333333 0.03333333333333333 -0.049333333333333326 0.050666666666666665 -0.09866666666666665 0.092 -0.148 0.1413333333333333 -0.009333333333333332 0 -0.009333333333333332 0.008 -0.017333333333333333 0.016a2.3226666666666667 2.3226666666666667 0 0 0 -0.148 0.1413333333333333c-0.009333333333333332 0.008 -0.009333333333333332 0.016 -0.017333333333333333 0.016a1.9386666666666665 1.9386666666666665 0 0 0 -0.124 0.13333333333333333c-0.016 0.016 -0.039999999999999994 0.032 -0.057333333333333326 0.047999999999999994a1.832 1.832 0 0 1 -0.1413333333333333 0.14933333333333332c-0.008 0.016 -0.023999999999999997 0.025333333333333333 -0.032 0.039999999999999994 -0.06666666666666667 0.06666666666666667 -0.124 0.13333333333333333 -0.19066666666666665 0.19999999999999998l-0.023999999999999997 0.023999999999999997c-0.13333333333333333 0.1413333333333333 -0.2733333333333333 0.2813333333333333 -0.42266666666666663 0.4053333333333333 -0.148 0.13333333333333333 -0.30533333333333335 0.256 -0.4626666666666666 0.364a5.036 5.036 0 0 1 -1.016 0.5613333333333332c-0.17333333333333334 0.07466666666666666 -0.356 0.1413333333333333 -0.5373333333333333 0.19866666666666666 -0.3466666666666667 0.07466666666666666 -0.7026666666666667 0.21466666666666667 -1.008 0.24 -0.06666666666666667 0 -0.13999999999999999 0.016 -0.20666666666666667 0.023999999999999997l-0.20666666666666667 0.049333333333333326 -0.19866666666666666 0.07466666666666666c-0.06666666666666667 0.025333333333333333 -0.132 0.05866666666666666 -0.1973333333333333 0.09066666666666667 -0.05866666666666666 0.04133333333333333 -0.124 0.07466666666666666 -0.18266666666666667 0.11599999999999999a1.3479999999999999 1.3479999999999999 0 0 0 -0.16533333333333333 0.1413333333333333c-0.057333333333333326 0.039999999999999994 -0.11599999999999999 0.09866666666666665 -0.16533333333333333 0.148 -0.049333333333333326 0.057333333333333326 -0.09866666666666665 0.10666666666666666 -0.13999999999999999 0.16533333333333333 -0.04133333333333333 0.06666666666666667 -0.09066666666666667 0.124 -0.124 0.19066666666666665a1.456 1.456 0 0 0 -0.11599999999999999 0.1893333333333333c-0.03333333333333333 0.07466666666666666 -0.06666666666666667 0.1413333333333333 -0.09066666666666667 0.21466666666666667 -0.025333333333333333 0.06666666666666667 -0.049333333333333326 0.1413333333333333 -0.07466666666666666 0.21466666666666667 -0.016 0.06666666666666667 -0.03333333333333333 0.13333333333333333 -0.039999999999999994 0.19999999999999998 0 0.006666666666666666 -0.009333333333333332 0.016 -0.009333333333333332 0.023999999999999997 -0.016 0.07466666666666666 -0.016 0.17333333333333334 -0.025333333333333333 0.22266666666666668C0.008 10.6 0 10.648 0 10.706666666666665a0.876 0.876 0 0 0 0.09866666666666665 0.41333333333333333v0.008c0.025333333333333333 0.049333333333333326 0.05866666666666666 0.09999999999999999 0.092 0.14933333333333332 0.032 0.049333333333333326 0.06666666666666667 0.09866666666666665 0.10666666666666666 0.148 0.04133333333333333 0.04133333333333333 0.09066666666666667 0.092 0.1413333333333333 0.13333333333333333a1.208 1.208 0 0 0 0.156 0.132c0.19866666666666666 0.17333333333333334 0.248 0.23066666666666663 0.504 0.3626666666666667 0.04133333333333333 0.025333333333333333 0.08266666666666667 0.04133333333333333 0.13333333333333333 0.06666666666666667 0.008 0 0.016 0.008 0.023999999999999997 0.008 0 0.017333333333333333 0 0.025333333333333333 0.008 0.04133333333333333a1.696 1.696 0 0 0 0.10666666666666666 0.3973333333333333c0.026666666666666665 0.049333333333333326 0.042666666666666665 0.09866666666666665 0.06666666666666667 0.148 0.009333333333333332 0.017333333333333333 0.017333333333333333 0.03333333333333333 0.026666666666666665 0.04133333333333333 0.032 0.06666666666666667 0.06533333333333333 0.124 0.09733333333333333 0.18266666666666667l0.124 0.17333333333333334c0.04133333333333333 0.049333333333333326 0.092 0.10666666666666666 0.1413333333333333 0.15733333333333333 0.049333333333333326 0.049333333333333326 0.09866666666666665 0.09066666666666667 0.15733333333333333 0.13999999999999999 0 0 0.008 0.008 0.016 0.008 0.049333333333333326 0.04133333333333333 0.09866666666666665 0.08266666666666667 0.14933333333333332 0.11599999999999999a1.3146666666666667 1.3146666666666667 0 0 0 0.18133333333333335 0.10666666666666666c0.057333333333333326 0.03333333333333333 0.124 0.06666666666666667 0.1893333333333333 0.092a0.9733333333333333 0.9733333333333333 0 0 0 0.16533333333333333 0.057333333333333326c0.009333333333333332 0.008 0.017333333333333333 0.008 0.03333333333333333 0.016 0.03333333333333333 0.009333333333333332 0.07466666666666666 0.017333333333333333 0.10666666666666666 0.025333333333333333 -0.023999999999999997 0.44666666666666666 -0.032 0.8666666666666667 0.034666666666666665 1.016 0.07333333333333333 0.16533333333333333 0.43733333333333335 -0.33866666666666667 0.7999999999999999 -0.9173333333333332 -0.047999999999999994 0.5706666666666667 -0.08133333333333333 1.24 0 1.4386666666666665 0.092 0.20666666666666667 0.5866666666666667 -0.43866666666666665 1.0173333333333332 -1.1493333333333333 5.859999999999999 -1.3546666666666667 11.206666666666665 2.6933333333333334 11.768 8.413333333333332 -0.10666666666666666 -0.8933333333333333 -1.2066666666666666 -1.388 -1.7106666666666666 -1.2639999999999998 -0.248 0.6106666666666667 -0.6693333333333333 1.396 -1.3466666666666667 1.884 0.057333333333333326 -0.5466666666666666 0.03333333333333333 -1.1066666666666665 -0.08266666666666667 -1.6533333333333333a5.3453333333333335 5.3453333333333335 0 0 1 -1.0253333333333332 2.0826666666666664c-0.7839999999999999 0.057333333333333326 -1.5693333333333332 -0.32266666666666666 -1.9826666666666668 -0.8933333333333333 -0.03333333333333333 -0.023999999999999997 -0.04133333333333333 -0.07333333333333333 -0.06666666666666667 -0.10666666666666666 -0.023999999999999997 -0.057333333333333326 -0.049333333333333326 -0.11599999999999999 -0.06666666666666667 -0.17333333333333334a0.6866666666666666 0.6866666666666666 0 0 1 -0.049333333333333326 -0.17333333333333334c-0.008 -0.05866666666666666 -0.008 -0.11599999999999999 -0.008 -0.18266666666666667v-0.124a1.3226666666666667 1.3226666666666667 0 0 1 0.04133333333333333 -0.17333333333333334c0.017333333333333333 -0.057333333333333326 0.03333333333333333 -0.11466666666666665 0.05866666666666666 -0.17333333333333334 0.032 -0.057333333333333326 0.057333333333333326 -0.11599999999999999 0.09866666666666665 -0.17333333333333334 0.13999999999999999 -0.3973333333333333 0.13999999999999999 -0.72 -0.11599999999999999 -0.9093333333333333a0.9413333333333332 0.9413333333333332 0 0 0 -0.15733333333333333 -0.08266666666666667c-0.032 -0.008 -0.07333333333333333 -0.023999999999999997 -0.10666666666666666 -0.03333333333333333l-0.06666666666666667 -0.023999999999999997a1.1293333333333333 1.1293333333333333 0 0 0 -0.17333333333333334 -0.04133333333333333 0.6293333333333333 0.6293333333333333 0 0 0 -0.17333333333333334 -0.025333333333333333 1.3466666666666667 1.3466666666666667 0 0 0 -0.18133333333333335 -0.016c-0.04133333333333333 0 -0.08266666666666667 0.008 -0.124 0.008a0.6453333333333333 0.6453333333333333 0 0 0 -0.18266666666666667 0.025333333333333333c-0.057333333333333326 0.008 -0.11466666666666665 0.016 -0.17333333333333334 0.032a1.424 1.424 0 0 0 -0.17333333333333334 0.05866666666666666c-0.057333333333333326 0.023999999999999997 -0.10666666666666666 0.049333333333333326 -0.16533333333333333 0.07466666666666666 -0.049333333333333326 0.023999999999999997 -0.09866666666666665 0.057333333333333326 -0.15733333333333333 0.08266666666666667 -1.9253333333333331 1.2559999999999998 -0.7759999999999999 4.197333333333333 0.5373333333333333 5.049333333333333 -0.496 0.09066666666666667 -1 0.1973333333333333 -1.14 0.30533333333333335l-0.017333333333333333 0.016c0.356 0.21466666666666667 0.728 0.3973333333333333 1.1159999999999999 0.5546666666666666 0.5293333333333333 0.17333333333333334 1.0906666666666665 0.3293333333333333 1.3386666666666667 0.39599999999999996v0.008a7.994666666666667 7.994666666666667 0 0 0 2.0826666666666664 0.14933333333333332c3.6613333333333333 -0.256 6.661333333333333 -3.041333333333333 7.206666666666667 -6.710666666666667l0.049333333333333326 0.21466666666666667c0.025333333333333333 0.14933333333333332 0.057333333333333326 0.30666666666666664 0.07466666666666666 0.4626666666666666v0.008c0.016 0.07466666666666666 0.023999999999999997 0.14933333333333332 0.03333333333333333 0.216v0.032c0.008 0.07466666666666666 0.016 0.14933333333333332 0.016 0.216 0.008 0.09066666666666667 0.016 0.18133333333333335 0.016 0.27199999999999996v0.13333333333333333c0 0.039999999999999994 0.009333333333333332 0.08933333333333333 0.009333333333333332 0.13066666666666665 0 0.050666666666666665 -0.009333333333333332 0.09999999999999999 -0.009333333333333332 0.14933333333333332v0.11599999999999999c0 0.057333333333333326 -0.008 0.10666666666666666 -0.008 0.16533333333333333 0 0.03333333333333333 0 0.06666666666666667 -0.008 0.10666666666666666 0 0.05866666666666666 -0.008 0.11599999999999999 -0.008 0.18266666666666667 -0.008 0.023999999999999997 -0.008 0.049333333333333326 -0.008 0.07333333333333333l-0.026666666666666665 0.19066666666666665c0 0.025333333333333333 0 0.049333333333333326 -0.006666666666666666 0.07466666666666666 -0.009333333333333332 0.08266666666666667 -0.025333333333333333 0.15733333333333333 -0.03333333333333333 0.24v0.016l-0.049333333333333326 0.23199999999999998v0.023999999999999997l-0.049333333333333326 0.22266666666666668c0 0.009333333333333332 -0.009333333333333332 0.026666666666666665 -0.009333333333333332 0.03333333333333333a2.2173333333333334 2.2173333333333334 0 0 1 -0.057333333333333326 0.224v0.023999999999999997c-0.025333333333333333 0.08266666666666667 -0.049333333333333326 0.15733333333333333 -0.06666666666666667 0.23199999999999998 -0.008 0.008 -0.008 0.016 -0.008 0.016l-0.07466666666666666 0.248c-0.032 0.08266666666666667 -0.057333333333333326 0.15733333333333333 -0.09066666666666667 0.24 -0.03333333333333333 0.08266666666666667 -0.057333333333333326 0.16533333333333333 -0.09066666666666667 0.24 -0.03333333333333333 0.08266666666666667 -0.06666666666666667 0.156 -0.09866666666666665 0.24h-0.009333333333333332c-0.032 0.07333333333333333 -0.06666666666666667 0.156 -0.10666666666666666 0.23066666666666663a0.4026666666666666 0.4026666666666666 0 0 1 -0.025333333333333333 0.057333333333333326c-0.008 0.008 -0.008 0.017333333333333333 -0.016 0.025333333333333333a7.822666666666667 7.822666666666667 0 0 1 -2.3226666666666667 2.776c-0.06666666666666667 0.04133333333333333 -0.132 0.092 -0.19866666666666666 0.1413333333333333 -0.016 0.016 -0.039999999999999994 0.023999999999999997 -0.057333333333333326 0.039999999999999994a3.470666666666667 3.470666666666667 0 0 1 -0.18133333333333335 0.12533333333333332l0.023999999999999997 0.049333333333333326h0.009333333333333332l0.3466666666666667 -0.049333333333333326h0.008c0.21466666666666667 -0.03333333333333333 0.42933333333333334 -0.07466666666666666 0.6439999999999999 -0.11599999999999999 0.05866666666666666 -0.008 0.124 -0.025333333333333333 0.18266666666666667 -0.04133333333333333l0.11599999999999999 -0.025333333333333333c0.057333333333333326 -0.008 0.11466666666666665 -0.023999999999999997 0.17333333333333334 -0.032 0.049333333333333326 -0.017333333333333333 0.09866666666666665 -0.026666666666666665 0.148 -0.04133333333333333 0.8266666666666667 -0.19999999999999998 1.6280000000000001 -0.472 2.397333333333333 -0.7933333333333332a13.234666666666666 13.234666666666666 0 0 1 -5.133333333333333 4.189333333333333c0.952 -0.06666666666666667 1.901333333333333 -0.22266666666666668 2.818666666666666 -0.488a13.204 13.204 0 0 0 7.809333333333333 -6.239999999999999 13.190666666666667 13.190666666666667 0 0 1 -2.2226666666666666 5.314666666666667 13.010666666666665 13.010666666666665 0 0 0 2.2066666666666666 -1.8346666666666664 13.098666666666666 13.098666666666666 0 0 0 3.4799999999999995 -7.023999999999999c0.27999999999999997 1.3066666666666666 0.3626666666666667 2.6533333333333333 0.24 3.982666666666667 5.965333333333334 -8.321333333333332 0.49466666666666664 -16.949333333333332 -1.7946666666666666 -19.221333333333334 -0.008 -0.017333333333333333 -0.016 -0.025333333333333333 -0.016 -0.04133333333333333 -0.008 0.008 -0.008 0.008 -0.008 0.016 0 -0.008 0 -0.008 -0.009333333333333332 -0.016 0 0.09866666666666665 -0.008 0.1973333333333333 -0.016 0.29733333333333334a11.12 11.12 0 0 1 -0.08266666666666667 0.5533333333333332c-0.039999999999999994 0.18133333333333335 -0.09066666666666667 0.364 -0.13999999999999999 0.5466666666666666 -0.05866666666666666 0.17333333333333334 -0.124 0.3546666666666667 -0.19999999999999998 0.528a7.096 7.096 0 0 1 -0.24666666666666665 0.504 6.3133333333333335 6.3133333333333335 0 0 1 -0.6359999999999999 0.9173333333333332c-0.124 0.148 -0.256 0.27999999999999997 -0.3893333333333333 0.41333333333333333a5.325333333333333 5.325333333333333 0 0 1 -0.24 0.20666666666666667l-0.1893333333333333 0.16533333333333333a4.612 4.612 0 0 1 -0.4626666666666666 0.3213333333333333 5.726666666666667 5.726666666666667 0 0 1 -0.488 0.2813333333333333c-0.17333333333333334 0.08266666666666667 -0.3466666666666667 0.15733333333333333 -0.52 0.23199999999999998a5.818666666666666 5.818666666666666 0 0 1 -1.0906666666666665 0.29733333333333334c-0.19066666666666665 0.03333333333333333 -0.37999999999999995 0.049333333333333326 -0.5626666666666666 0.06666666666666667a6.552 6.552 0 0 1 -0.39599999999999996 0.016 6.213333333333333 6.213333333333333 0 0 1 -0.5626666666666666 -0.03333333333333333 4.182666666666666 4.182666666666666 0 0 1 -0.5613333333333332 -0.08266666666666667 4.181333333333333 4.181333333333333 0 0 1 -0.5533333333333332 -0.13999999999999999h-0.009333333333333332c0.18266666666666667 -0.017333333333333333 0.364 -0.03333333333333333 0.5466666666666666 -0.06666666666666667a5.990666666666667 5.990666666666667 0 0 0 1.0906666666666665 -0.29733333333333334c0.18133333333333335 -0.06666666666666667 0.3546666666666667 -0.14933333333333332 0.52 -0.23199999999999998 0.17333333333333334 -0.08266666666666667 0.33066666666666666 -0.17333333333333334 0.496 -0.27199999999999996 0.15733333333333333 -0.10666666666666666 0.3133333333333333 -0.21466666666666667 0.4626666666666666 -0.33066666666666666 0.14933333333333332 -0.11599999999999999 0.28933333333333333 -0.24 0.42133333333333334 -0.372 0.13999999999999999 -0.124 0.264 -0.264 0.38799999999999996 -0.4053333333333333 0.124 -0.148 0.24 -0.29733333333333334 0.3466666666666667 -0.44533333333333336 0.017333333333333333 -0.025333333333333333 0.034666666666666665 -0.05866666666666666 0.050666666666666665 -0.08266666666666667 0.08266666666666667 -0.13333333333333333 0.16533333333333333 -0.2653333333333333 0.24 -0.3973333333333333a5.696 5.696 0 0 0 0.44533333333333336 -1.0333333333333332c0.05866666666666666 -0.17333333333333334 0.09999999999999999 -0.3546666666666667 0.1413333333333333 -0.5373333333333333 0.03333333333333333 -0.1893333333333333 0.06666666666666667 -0.3706666666666667 0.08266666666666667 -0.5533333333333332 0.016 -0.1893333333333333 0.03333333333333333 -0.37999999999999995 0.03333333333333333 -0.5613333333333332 0 -0.13333333333333333 -0.009333333333333332 -0.2653333333333333 -0.017333333333333333 -0.3973333333333333a8.968 8.968 0 0 0 -0.06666666666666667 -0.5533333333333332 5.990666666666667 5.990666666666667 0 0 0 -0.12266666666666666 -0.5533333333333332c-0.05866666666666666 -0.17333333333333334 -0.11599999999999999 -0.356 -0.18266666666666667 -0.5293333333333333 -0.06666666666666667 -0.17333333333333334 -0.148 -0.3466666666666667 -0.23066666666666663 -0.512 -0.092 -0.16533333333333333 -0.18266666666666667 -0.33066666666666666 -0.2813333333333333 -0.488a9.123999999999999 9.123999999999999 0 0 0 -0.33066666666666666 -0.45333333333333337c-0.124 -0.1413333333333333 -0.248 -0.2826666666666666 -0.37999999999999995 -0.42266666666666663a5.1706666666666665 5.1706666666666665 0 0 0 -0.21466666666666667 -0.20666666666666667c-0.37333333333333335 -0.28933333333333333 -0.7599999999999999 -0.5613333333333332 -1.1493333333333333 -0.8093333333333332a1.5386666666666664 1.5386666666666664 0 0 0 -0.16533333333333333 -0.08266666666666667 3.2199999999999998 3.2199999999999998 0 0 0 -0.7853333333333332 -0.3466666666666667Z" fill="#ccdaf5" stroke-width="1.3333"></path>
</svg>