<svg role="img" viewBox="0 0 34 34" xmlns="http://www.w3.org/2000/svg" id="Sonarcloud--Streamline-Simple-Icons" height="34" width="34">
  <desc>
    Sonarcloud Streamline Icon: https://streamlinehq.com
  </desc>
  <title>SonarCloud</title>
  <path d="M31.741833333333332 15.441666666666668a10.041333333333334 10.041333333333334 0 0 0 -4.784083333333333 -3.3405000000000005v-0.12041666666666669c0 -5.7162500000000005 -4.471 -10.375666666666667 -9.98325 -10.375666666666667 -5.515083333333333 0 -9.9875 4.649500000000001 -9.9875 10.377083333333335v0.1416666666666667C2.9480833333333334 13.447000000000003 0 17.37966666666667 0 22.017833333333336c0 5.7162500000000005 4.47525 10.377083333333335 9.9875 10.377083333333335a9.784916666666668 9.784916666666668 0 0 0 7.015333333333333 -2.9863333333333335 9.75375 9.75375 0 0 0 7.00825 2.9863333333333335c5.5023333333333335 0 9.988916666666668 -4.649500000000001 9.988916666666668 -10.377083333333335a10.727 10.727 0 0 0 -2.258166666666667 -6.577583333333333zM24.0125 29.769833333333334c-4.112583333333333 0 -7.461583333333334 -3.4793333333333334 -7.461583333333334 -7.754833333333334a1.2891666666666668 1.2891666666666668 0 0 0 -1.2608333333333335 -1.3090000000000002 1.2835 1.2835 0 0 0 -1.2636666666666667 1.3104166666666668c0 1.9380000000000002 0.5199166666666667 3.755583333333333 1.4081666666666668 5.309666666666668a7.304333333333333 7.304333333333333 0 0 1 -5.4470833333333335 2.4550833333333335c-4.114 0 -7.465833333333333 -3.48075 -7.465833333333333 -7.754833333333334 0 -4.272666666666667 3.3518333333333334 -7.753416666666667 7.465833333333333 -7.753416666666667 0.8925000000000001 0 1.7580833333333337 0.16575 2.58825 0.4745833333333334 0.009916666666666667 0 0.018416666666666668 0.009916666666666667 0.028333333333333335 0.009916666666666667 0.28758333333333336 0.10058333333333333 0.69275 0.2975 0.8188333333333333 0.4065833333333333a1.2155 1.2155 0 0 0 1.7694166666666669 -0.1416666666666667 1.3345 1.3345 0 0 0 -0.1374166666666667 -1.8416666666666668c-0.5525000000000001 -0.48450000000000004 -1.4095833333333334 -0.8145833333333333 -1.6206666666666667 -0.8925000000000001a9.653166666666667 9.653166666666667 0 0 0 -3.435416666666667 -0.6275833333333334c-0.16008333333333336 0 -0.31875000000000003 0 -0.4788333333333334 0.009916666666666667 0.17 -4.131 3.4467499999999998 -7.43325 7.465833333333333 -7.43325 4.112583333333333 0 7.461583333333334 3.4793333333333334 7.461583333333334 7.754833333333334a7.889416666666667 7.889416666666667 0 0 1 -3.1379166666666665 6.322583333333334 1.343 1.343 0 0 0 -0.2975 1.8175833333333333c0.24225000000000002 0.3541666666666667 0.6375000000000001 0.5525000000000001 1.0299166666666666 0.5525000000000001a1.2183333333333333 1.2183333333333333 0 0 0 0.7310000000000001 -0.24366666666666667 10.456416666666668 10.456416666666668 0 0 0 3.83775 -5.694999999999999c2.882916666666667 1.1120833333333335 4.886083333333334 4.007750000000001 4.886083333333334 7.2802500000000006 -0.009916666666666667 4.264166666666666 -3.358916666666667 7.743500000000001 -7.484250000000001 7.743500000000001z" fill="#ccdaf5" stroke-width="1.4167"></path>
</svg>