<svg xmlns="http://www.w3.org/2000/svg" viewBox="0 0 16 16" fill="#ccdaf5" id="Pulse--Streamline-Phosphor" height="16" width="16">
  <desc>
    Pulse Streamline Icon: https://streamlinehq.com
  </desc>
  <path d="M15.84 8.280075c0 0.30926875 -0.25073125 0.5599875 -0.56 0.56h-1.8942l-2.6446 5.2906c-0.09495625 0.1897625 -0.28900625 0.30955 -0.5012 0.3094h-0.028c-0.22195625 -0.010975 -0.416425 -0.15215625 -0.4956 -0.3598L5.7145 3.573275l-2.2449 4.9385c-0.09083125 0.1998625 -0.29006875 0.3282125 -0.5096 0.3283H0.72c-0.4310875 0 -0.70051875 -0.46666875 -0.484975 -0.84 0.1000375 -0.1732625 0.28490625 -0.28 0.484975 -0.28h1.8795L5.2504 1.888375c0.17825 -0.3925125 0.7145625 -0.44486875 0.96535625 -0.09424375 0.02794375 0.0390625 0.05074375 0.0815625 0.06784375 0.12644375l4.0257 10.57 2.2295 -4.4597c0.0945625 -0.19030625 0.28869375 -0.3106875 0.5012 -0.3108h2.24c0.30926875 0.0000125 0.56 0.25073125 0.56 0.56Z" stroke-width="0.0625"></path>
</svg>