<svg xmlns="http://www.w3.org/2000/svg" viewBox="0 0 32 32" fill="#ccdaf5" aria-hidden="true" id="Folder--Streamline-Heroicons" height="32" width="32">
  <desc>
    Folder Streamline Icon: https://streamlinehq.com
  </desc>
  <path d="M26 28a4 4 0 0 0 4 -4v-6a4 4 0 0 0 -4 -4h-20a4 4 0 0 0 -4 4V24a4 4 0 0 0 4 4h20Zm-24 -14.471999999999998V8a4 4 0 0 1 4 -4h7.171999999999999a3 3 0 0 1 2.12 0.8786666666666667l2.829333333333333 2.828c0.18666666666666668 0.18799999999999997 0.44133333333333336 0.29333333333333333 0.7066666666666667 0.29333333333333333H26a4 4 0 0 1 4 4v1.5279999999999998A5.977333333333332 5.977333333333332 0 0 0 26 12h-20a5.977333333333332 5.977333333333332 0 0 0 -4 1.5279999999999998Z" stroke-width="1.3333"></path>
</svg>