<svg xmlns="http://www.w3.org/2000/svg" fill="none" viewBox="0 0 28 28" id="Multiple-Stars--Streamline-Flex" height="28" width="28">
  <desc>
    Multiple Stars Streamline Icon: https://streamlinehq.com
  </desc>
  <g id="multiple-stars--reward-rating-rate-social-star-media-favorite-like-stars-spark">
    <path id="Union" fill="#ccdaf5" fill-rule="evenodd" d="m7.304 1.232534 -0.65298 0.513144L7.304 1.232534c0.48086 0.611904 0.83834 1.327826 1.0377 2.123946 0.79612 0.19936 1.51204 0.55684 2.12396 1.0377 1.01968 0.80132 1.01968 2.33218 0 3.1335 -0.6119 0.48086 -1.3278 0.83834 -2.1239 1.03772 -0.19936 0.7961 -0.55684 1.51204 -1.0377 2.12394 -0.80132 1.01968 -2.33218 1.01968 -3.1335 0 -0.48088 -0.6119 -0.83834 -1.32784 -1.03772 -2.12394 -0.7961 -0.19938 -1.512034 -0.55684 -2.12394 -1.03772 -1.01967948 -0.80132 -1.01967936 -2.33218 0 -3.1335 0.611896 -0.48086 1.32778 -0.83834 2.1239 -1.0377 0.19936 -0.79612 0.55682 -1.512042 1.0377 -2.123946 0.80132 -1.01968 2.33218 -1.01968 3.1335 0Zm13.9292 2.650366c-1.0816 -1.37642 -3.14324 -1.37642 -4.2249 0 -0.83842 1.06686 -1.44016 2.3364 -1.72856 3.76142 -1.42504 0.28842 -2.69448 0.89016 -3.76134 1.72856 -1.37642 1.08166 -1.37642 3.14328 0 4.22494 1.06686 0.8384 2.33638 1.44014 3.76142 1.72856 0.28842 1.42504 0.89016 2.69456 1.72856 3.76142 1.08166 1.3764 3.14322 1.3764 4.22502 0 0.8384 -1.06686 1.44 -2.33638 1.7284 -3.76142 1.425 -0.28842 2.6946 -0.89016 3.7614 -1.72856 1.3764 -1.08166 1.3764 -3.14326 0 -4.22494 -1.0668 -0.8384 -2.3364 -1.44014 -3.7614 -1.72856 -0.2884 -1.42504 -0.8902 -2.69456 -1.7286 -3.76142ZM9.31604 14.02888c-0.95426 -1.21428 -2.77466 -1.21428 -3.72892 0 -0.67586 0.86002 -1.16692 1.87744 -1.41612 3.01572 -1.13828 0.24922 -2.15564 0.74028 -3.015652 1.41614 -1.2142918 0.95426 -1.2142918 2.77466 -0.000002 3.72886 0.860034 0.676 1.877434 1.167 3.015734 1.4162 0.2492 1.1382 0.74026 2.1556 1.41612 3.0158 0.95426 1.2142 2.77466 1.2142 3.72892 0 0.67586 -0.8602 1.16692 -1.8776 1.41612 -3.0158 1.1383 -0.2492 2.15564 -0.7402 3.01566 -1.4162 1.21428 -0.9542 1.21428 -2.7746 0 -3.72886 -0.86004 -0.67586 -1.87744 -1.16692 -3.01572 -1.41614 -0.24922 -1.13828 -0.74028 -2.1557 -1.41614 -3.01572Z" clip-rule="evenodd" stroke-width="2"></path>
  </g>
</svg>