<svg xmlns="http://www.w3.org/2000/svg" fill="none" viewBox="0 0 26 26" id="Sparkles--Streamline-Ionic-Filled" height="26" width="26">
  <desc>
    Sparkles Streamline Icon: https://streamlinehq.com
  </desc>
  <g clip-path="url(#a)">
    <path fill="#ccdaf5" d="M10.562933333333334 25.999512499999998c-0.25675 0.0012999999999999997 -0.5078125 -0.07577916666666666 -0.7196041666666666 -0.2209458333333333 -0.21184583333333332 -0.14522083333333333 -0.37423749999999995 -0.35159583333333333 -0.4656166666666667 -0.5915541666666667l-2.023125 -5.260883333333333c-0.04095 -0.10600416666666666 -0.10362083333333333 -0.20225833333333332 -0.18400416666666666 -0.2826416666666667 -0.08032916666666666 -0.08038333333333333 -0.17663749999999998 -0.14305416666666665 -0.2826416666666667 -0.18400416666666666L1.6255416666666664 17.434841666666664c-0.23971458333333331 -0.09202916666666666 -0.4458945833333333 -0.25452916666666664 -0.5913320833333333 -0.46610416666666665 -0.1454375 -0.21162916666666665 -0.22329666666666664 -0.46236666666666665 -0.22329666666666664 -0.7191166666666665 0 -0.25675 0.07785916666666666 -0.5074875 0.22329666666666664 -0.7191166666666665 0.1454375 -0.21157499999999999 0.3516175 -0.374075 0.5913320833333333 -0.46610416666666665l5.260883333333333 -2.023070833333333c0.10600416666666666 -0.04100416666666667 0.20231249999999998 -0.10367499999999999 0.2826416666666667 -0.18405833333333332 0.08038333333333333 -0.08032916666666666 0.14305416666666665 -0.17658333333333331 0.18400416666666666 -0.2826416666666667l2.0246416666666667 -5.2623999999999995c0.091975 -0.2396875 0.254475 -0.4459 0.46610416666666665 -0.5913374999999998 0.21157499999999999 -0.1454375 0.46236666666666665 -0.223275 0.7191166666666665 -0.223275 0.25675 0 0.5074875 0.07783749999999999 0.7190624999999999 0.223275 0.21162916666666665 0.1454375 0.3741291666666666 0.35164999999999996 0.46615833333333334 0.5913374999999998l2.023070833333333 5.260883333333333c0.04100416666666667 0.10600416666666666 0.10367499999999999 0.20231249999999998 0.18405833333333332 0.2826416666666667 0.08038333333333333 0.08038333333333333 0.17658333333333331 0.14305416666666665 0.2826416666666667 0.18400416666666666l5.2303875 2.0124541666666667c0.24949166666666667 0.09246249999999999 0.4643708333333333 0.2596208333333333 0.6154958333333334 0.47856249999999995 0.15107083333333332 0.21894166666666665 0.23107499999999997 0.4792125 0.22896249999999999 0.7452791666666666 -0.0038458333333333335 0.25225416666666667 -0.0833625 0.49757499999999993 -0.2282583333333333 0.7042208333333333 -0.14478749999999999 0.20653749999999996 -0.3483458333333333 0.3649208333333333 -0.5842416666666667 0.4545666666666666l-5.2608291666666664 2.023070833333333c-0.10605833333333332 0.04100416666666667 -0.20225833333333332 0.10367499999999999 -0.2826416666666667 0.18405833333333332 -0.08038333333333333 0.08038333333333333 -0.14305416666666665 0.17663749999999998 -0.18405833333333332 0.2826416666666667l-2.0245874999999995 5.2623999999999995c-0.09137916666666665 0.23995833333333333 -0.25382499999999997 0.4463333333333333 -0.4656166666666667 0.5915541666666667 -0.2117375 0.14516666666666667 -0.4628 0.2222458333333333 -0.7196041666666666 0.2209458333333333Z" stroke-width="0.5417"></path>
    <path fill="#ccdaf5" d="M4.468598333333333 8.937229166666667c-0.15053999999999998 0 -0.2975429166666666 -0.04560833333333333 -0.42164416666666665 -0.1308125 -0.12409583333333332 -0.08520416666666666 -0.2194670833333333 -0.20599583333333332 -0.2735416666666666 -0.34650416666666667l-0.85616375 -2.22625c-0.018557499999999998 -0.04869583333333333 -0.04719541666666666 -0.09284166666666666 -0.08403958333333333 -0.12972916666666665 -0.036844166666666664 -0.036833333333333336 -0.08105499999999999 -0.06548749999999999 -0.12974541666666664 -0.08406666666666666L0.47724191666666665 5.163724583333333C0.33677149999999995 5.109644583333333 0.21598416666666664 5.014262499999999 0.13079191666666667 4.8901666666666666 0.045599883333333334 4.766070833333333 5.4166666667e-10 4.619073333333334 0 4.468549583333333c5.4166666667e-10 -0.15052375 0.045599883333333334 -0.2975158333333333 0.13079191666666667 -0.4216170833333333 0.08519225 -0.12409583333333332 0.20597958333333333 -0.21947791666666666 0.3464499999999999 -0.27356874999999997l2.2262218333333332 -0.8561583333333332c0.04863624999999999 -0.018644166666666667 0.09280916666666665 -0.047309166666666666 0.1296425 -0.0841425s0.06550375 -0.08100624999999999 0.0841425 -0.1296425L3.76579125 0.49700137499999997c0.04785083333333333 -0.12989545833333332 0.13020583333333333 -0.24429437499999998 0.2381925 -0.330902 0.10799208333333332 -0.08660708333333333 0.23754249999999996 -0.14214839166666665 0.3747304166666667 -0.160654 0.16470458333333332 -0.020022599999999998 0.3313808333333333 0.0155129 0.47359541666666666 0.10097154166666665 0.14221999999999999 0.08545874999999999 0.2518533333333333 0.21594949999999996 0.31146916666666663 0.37078004166666667L6.019920833333333 2.7034204166666664c0.01863333333333333 0.04863624999999999 0.047341666666666664 0.09280916666666665 0.084175 0.1296425 0.03677916666666667 0.036833333333333336 0.08097916666666666 0.06549833333333333 0.12962083333333332 0.0841425l2.22625 0.8561583333333332c0.14045416666666663 0.05409083333333333 0.26124583333333334 0.14947291666666665 0.3464499999999999 0.27356874999999997 0.08515 0.12410125 0.13075833333333334 0.27109333333333335 0.13075833333333334 0.4216170833333333 0 0.15052375 -0.04560833333333333 0.29752125 -0.13075833333333334 0.4216170833333333 -0.08520416666666666 0.12409583333333332 -0.20599583333333332 0.21947791666666666 -0.3464499999999999 0.2735579166666666l-2.22625 0.8561420833333333c-0.04869583333333333 0.018579166666666664 -0.09289583333333333 0.04723333333333333 -0.12972916666666665 0.08406666666666666 -0.0368875 0.0368875 -0.06554166666666666 0.08103333333333333 -0.08406666666666666 0.12972916666666665l-0.8561420833333333 2.22625c-0.05408541666666666 0.14050833333333335 -0.14945124999999998 0.2613 -0.2735470833333333 0.34650416666666667 -0.12409583333333332 0.08520416666666666 -0.27109875 0.1308125 -0.4216333333333333 0.1308125Z" stroke-width="0.5417"></path>
    <path fill="#ccdaf5" d="M20.312283333333333 12.999891666666667c-0.16423333333333334 -0.00005416666666666666 -0.3245666666666666 -0.049887499999999994 -0.4599291666666666 -0.14283749999999998 -0.1353083333333333 -0.09305833333333333 -0.23930833333333332 -0.2249 -0.2982416666666666 -0.37819166666666665l-1.1598166666666665 -3.0148083333333333c-0.02042083333333333 -0.0531375 -0.051729166666666666 -0.10139999999999999 -0.091975 -0.14164583333333333s-0.08850833333333333 -0.07155416666666665 -0.14159166666666667 -0.091975l-3.0148625 -1.1598166666666665c-0.15312916666666665 -0.05898749999999999 -0.2848625 -0.16304166666666664 -0.3777583333333333 -0.29840416666666664 -0.09284166666666666 -0.1353083333333333 -0.14256666666666665 -0.29558749999999995 -0.14256666666666665 -0.45976666666666666 0 -0.164125 0.049725 -0.32440416666666666 0.14256666666666665 -0.45976666666666666 0.09289583333333333 -0.1353083333333333 0.22462916666666666 -0.23936249999999998 0.3777583333333333 -0.29834999999999995l3.0148625 -1.1598545833333334c0.05308333333333333 -0.020415416666666665 0.10134583333333332 -0.05174541666666666 0.14159166666666667 -0.09196416666666665 0.040245833333333335 -0.0402675 0.07155416666666665 -0.08850833333333333 0.091975 -0.14162416666666666l1.1512041666666666 -2.99351c0.05254166666666667 -0.14156458333333333 0.1425125 -0.26622916666666663 0.2602708333333333 -0.36073916666666667 0.11775833333333333 -0.09452083333333332 0.25891666666666663 -0.1553445833333333 0.40852499999999997 -0.17601458333333334 0.17972499999999997 -0.021753333333333333 0.36156249999999995 0.017138333333333332 0.5166958333333332 0.11052166666666666 0.15507916666666666 0.0933725 0.2745708333333333 0.23588499999999998 0.3394625 0.40490125l1.1598166666666665 3.014840833333333c0.02042083333333333 0.05311583333333333 0.051729166666666666 0.10135666666666666 0.091975 0.14162416666666666 0.040245833333333335 0.04021875 0.08850833333333333 0.07154875000000001 0.14164583333333333 0.09196416666666665l3.0148083333333333 1.1598545833333334c0.1531833333333333 0.05898749999999999 0.2848625 0.16304166666666664 0.3777583333333333 0.29834999999999995 0.09289583333333333 0.1353625 0.1426208333333333 0.29564166666666664 0.1426208333333333 0.45976666666666666 0 0.16417916666666665 -0.049725 0.3244583333333333 -0.1426208333333333 0.45976666666666666 -0.09289583333333333 0.1353625 -0.224575 0.23941666666666664 -0.3777583333333333 0.29840416666666664l-3.0148083333333333 1.1598166666666665c-0.0531375 0.02042083333333333 -0.10139999999999999 0.051729166666666666 -0.14164583333333333 0.091975s-0.07155416666666665 0.08850833333333333 -0.091975 0.14164583333333333l-1.1598166666666665 3.0148083333333333c-0.058933333333333324 0.15329166666666663 -0.16293333333333332 0.2851333333333333 -0.2982416666666666 0.37819166666666665 -0.1353625 0.09294999999999999 -0.2956958333333333 0.14278333333333332 -0.4599291666666666 0.14283749999999998Z" stroke-width="0.5417"></path>
  </g>
  <defs>
    <clipPath id="a">
      <path fill="#ccdaf5" d="M0 0h25.999458333333333v25.999458333333333H0z" stroke-width="0.5417"></path>
    </clipPath>
  </defs>
</svg>