<svg xmlns="http://www.w3.org/2000/svg" fill="#ccdaf5" class="bi bi-stars" viewBox="0 0 32 32" id="Stars--Streamline-Bootstrap" height="32" width="32">
  <desc>
    Stars Streamline Icon: https://streamlinehq.com
  </desc>
  <path d="M15.314 12.494c0.22 -0.66 1.152 -0.66 1.372 0l1.29 3.874a5.78 5.78 0 0 0 3.658 3.656l3.872 1.29c0.66 0.22 0.66 1.152 0 1.372l-3.874 1.29a5.78 5.78 0 0 0 -3.656 3.658l-1.29 3.872a0.722 0.722 0 0 1 -1.372 0l-1.29 -3.874a5.78 5.78 0 0 0 -3.656 -3.656l-3.874 -1.29a0.722 0.722 0 0 1 0 -1.372l3.874 -1.29a5.78 5.78 0 0 0 3.656 -3.656zM7.588 2.296a0.434 0.434 0 0 1 0.824 0l0.774 2.324c0.346 1.036 1.158 1.848 2.194 2.194l2.324 0.774a0.434 0.434 0 0 1 0 0.824l-2.324 0.774A3.46 3.46 0 0 0 9.186 11.38l-0.774 2.324a0.434 0.434 0 0 1 -0.824 0L6.814 11.38A3.46 3.46 0 0 0 4.62 9.186l-2.324 -0.774a0.434 0.434 0 0 1 0 -0.824l2.324 -0.774A3.46 3.46 0 0 0 6.814 4.62zM21.726 0.198a0.29 0.29 0 0 1 0.548 0l0.516 1.548c0.23 0.692 0.772 1.234 1.464 1.464l1.548 0.516a0.29 0.29 0 0 1 0 0.548l-1.548 0.516a2.32 2.32 0 0 0 -1.464 1.464l-0.516 1.548a0.29 0.29 0 0 1 -0.548 0l-0.516 -1.548a2.32 2.32 0 0 0 -1.464 -1.464L18.2 4.274a0.29 0.29 0 0 1 0 -0.548l1.548 -0.516c0.692 -0.23 1.234 -0.772 1.464 -1.464z" stroke-width="2"></path>
</svg>