<svg viewBox="0 0 24 24" fill="none" xmlns="http://www.w3.org/2000/svg" id="Pallete-2--Streamline-Solar" height="24" width="24">
  <desc>
    Pallete 2 Streamline Icon: https://streamlinehq.com
  </desc>
  <path fill-rule="evenodd" clip-rule="evenodd" d="M10.8468 21.9342C5.86713 21.3624 2 17.1328 2 12 2 6.47715 6.47715 2 12 2c5.5228 0 10 4.47715 10 10 0 5.1565 -3.2827 4.7325 -6.0865 4.3703 -1.6171 -0.2089 -3.0749 -0.3972 -3.6516 0.5177 -0.3945 0.6256 0.0319 1.4058 0.5549 1.9288 0.6535 0.6535 0.6535 1.7129 0 2.3664 -0.523 0.523 -1.2352 0.8354 -1.97 0.751Zm0.2382 -14.93444c0 0.82842 -0.6716 1.5 -1.5 1.5 -0.82842 0 -1.5 -0.67158 -1.5 -1.5 0 -0.82843 0.67158 -1.5 1.5 -1.5 0.8284 0 1.5 0.67157 1.5 1.5ZM6.5 13c0.82843 0 1.5 -0.6716 1.5 -1.5s-0.67157 -1.50002 -1.5 -1.50002S5 10.6716 5 11.5c0 0.8284 0.67157 1.5 1.5 1.5Zm11 0c0.8284 0 1.5 -0.6716 1.5 -1.5s-0.6716 -1.50002 -1.5 -1.50002S16 10.6716 16 11.5c0 0.8284 0.6716 1.5 1.5 1.5Zm-3 -4.50002c0.8284 0 1.5 -0.67157 1.5 -1.5 0 -0.82842 -0.6716 -1.5 -1.5 -1.5s-1.5 0.67158 -1.5 1.5c0 0.82843 0.6716 1.5 1.5 1.5Z" fill="#ccdaf5" stroke-width="1"></path>
</svg>