<svg xmlns="http://www.w3.org/2000/svg" fill="#ccdaf5" class="bi bi-cpu" viewBox="0 0 35 35" id="Cpu--Streamline-Bootstrap" height="35" width="35">
  <desc>
    Cpu Streamline Icon: https://streamlinehq.com
  </desc>
  <path d="M10.9375 0a1.09375 1.09375 0 0 1 1.09375 1.09375V4.375h2.1875V1.09375a1.09375 1.09375 0 0 1 2.1875 0V4.375h2.1875V1.09375a1.09375 1.09375 0 0 1 2.1875 0V4.375h2.1875V1.09375a1.09375 1.09375 0 0 1 2.1875 0V4.375A5.46875 5.46875 0 0 1 30.625 9.84375h3.28125a1.09375 1.09375 0 0 1 0 2.1875H30.625v2.1875h3.28125a1.09375 1.09375 0 0 1 0 2.1875H30.625v2.1875h3.28125a1.09375 1.09375 0 0 1 0 2.1875H30.625v2.1875h3.28125a1.09375 1.09375 0 0 1 0 2.1875H30.625a5.46875 5.46875 0 0 1 -5.46875 5.46875v3.28125a1.09375 1.09375 0 0 1 -2.1875 0V30.625h-2.1875v3.28125a1.09375 1.09375 0 0 1 -2.1875 0V30.625h-2.1875v3.28125a1.09375 1.09375 0 0 1 -2.1875 0V30.625h-2.1875v3.28125a1.09375 1.09375 0 0 1 -2.1875 0V30.625A5.46875 5.46875 0 0 1 4.375 25.15625H1.09375a1.09375 1.09375 0 0 1 0 -2.1875H4.375v-2.1875H1.09375a1.09375 1.09375 0 0 1 0 -2.1875H4.375v-2.1875H1.09375a1.09375 1.09375 0 0 1 0 -2.1875H4.375v-2.1875H1.09375a1.09375 1.09375 0 0 1 0 -2.1875H4.375A5.46875 5.46875 0 0 1 9.84375 4.375V1.09375A1.09375 1.09375 0 0 1 10.9375 0m-1.09375 6.5625A3.28125 3.28125 0 0 0 6.5625 9.84375v15.3125A3.28125 3.28125 0 0 0 9.84375 28.4375h15.3125a3.28125 3.28125 0 0 0 3.28125 -3.28125v-15.3125A3.28125 3.28125 0 0 0 25.15625 6.5625zM10.9375 14.21875A3.28125 3.28125 0 0 1 14.21875 10.9375h6.5625A3.28125 3.28125 0 0 1 24.0625 14.21875v6.5625A3.28125 3.28125 0 0 1 20.78125 24.0625h-6.5625A3.28125 3.28125 0 0 1 10.9375 20.78125zM14.21875 13.125a1.09375 1.09375 0 0 0 -1.09375 1.09375v6.5625a1.09375 1.09375 0 0 0 1.09375 1.09375h6.5625a1.09375 1.09375 0 0 0 1.09375 -1.09375v-6.5625a1.09375 1.09375 0 0 0 -1.09375 -1.09375z" stroke-width="2.1875"></path>
</svg>