<svg role="img" viewBox="0 0 32 32" xmlns="http://www.w3.org/2000/svg" id="Codeigniter--Streamline-Simple-Icons" height="32" width="32">
  <desc>
    Codeigniter Streamline Icon: https://streamlinehq.com
  </desc>
  <title>CodeIgniter</title>
  <path d="M15.287999999999998 0c1.1733333333333333 1.8973333333333333 -0.37333333333333335 4.4079999999999995 -1.6093333333333333 5.810666666666666 -1.1986666666666665 1.3599999999999999 -2.6559999999999997 2.497333333333333 -3.9799999999999995 3.733333333333333 -1.4213333333333333 1.3279999999999998 -2.7880000000000003 2.7253333333333334 -3.956 4.284 -2.337333333333333 3.1186666666666665 -3.769333333333333 7.04 -2.717333333333333 10.931999999999999 1.0506666666666666 3.888 4.418666666666667 6.362666666666667 8.222666666666665 7.238666666666667 -1.92 -0.8293333333333333 -3.7146666666666666 -2.937333333333333 -3.7199999999999998 -5.093333333333333 -0.004 -2.353333333333333 1.4866666666666666 -4.349333333333333 3.34 -5.661333333333333 -0.22266666666666668 0.8426666666666667 -0.344 1.6133333333333333 0.20666666666666667 2.365333333333333a2.2399999999999998 2.2399999999999998 0 0 0 2.261333333333333 0.856c1.9826666666666668 -0.43466666666666665 2.0746666666666664 -2.6133333333333333 0.8986666666666667 -3.8853333333333335 -1.1626666666666665 -1.2573333333333332 -2.2866666666666666 -2.6786666666666665 -1.845333333333333 -4.502666666666666 0.22266666666666668 -0.9133333333333333 0.7839999999999999 -1.7706666666666666 1.4946666666666666 -2.3826666666666663 -0.5466666666666666 1.4373333333333334 1.0066666666666666 2.8533333333333335 2.0306666666666664 3.5599999999999996 1.776 1.224 3.724 2.1493333333333333 5.356 3.584 1.7173333333333334 1.5093333333333332 2.986666666666667 3.548 2.7293333333333334 5.913333333333332 -0.2773333333333333 2.564 -2.3146666666666667 4.346666666666666 -4.6 5.247999999999999 4.829333333333333 -1.0666666666666667 9.82 -4.813333333333333 9.92 -10.169333333333332 0.124 -4.042666666666666 -2.537333333333333 -7.622666666666666 -6.8773333333333335 -9.845333333333333 0.2533333333333333 0.6399999999999999 0.09866666666666665 0.9293333333333332 -0.07733333333333334 1.232 -0.7333333333333334 1.2586666666666666 -2.776 1.5359999999999998 -3.78 0.24533333333333332 -1.6066666666666667 -2.064 0.03333333333333333 -4.288 0.26266666666666666 -6.473333333333334 0.2866666666666666 -2.74 -1.4306666666666665 -5.398666666666667 -3.5599999999999996 -6.989333333333333z" fill="#ccdaf5" stroke-width="1.3333"></path>
</svg>