<svg viewBox="0 0 36 36" fill="none" xmlns="http://www.w3.org/2000/svg" id="Eye--Streamline-Unicons" height="36" width="36">
  <desc>
    Eye Streamline Icon: https://streamlinehq.com
  </desc>
  <path d="M35.4927 17.2947C31.930799999999998 9.0243 25.22985 3.89295 18 3.89295S4.0692 9.02445 0.5073 17.2947C0.41009999999999996 17.51715 0.36 17.757150000000003 0.36 18s0.0501 0.48285 0.1473 0.7053C4.0692 26.975699999999996 10.770150000000001 32.10705 18 32.10705s13.930800000000001 -5.13135 17.4927 -13.40175c0.0972 -0.22244999999999998 0.1473 -0.46245 0.1473 -0.7053s-0.0501 -0.48285 -0.1473 -0.7053ZM18 28.58025c-5.5899 0 -10.8801 -4.03815 -13.930800000000001 -10.58025C7.1198999999999995 11.4579 12.4101 7.4197500000000005 18 7.4197500000000005c5.5899 0 10.8801 4.03815 13.930800000000001 10.58025 -3.0507 6.5421 -8.3409 10.58025 -13.930800000000001 10.58025Zm0 -17.633850000000002c-1.395 0 -2.7588 0.41369999999999996 -3.9187499999999997 1.18875 -1.15995 0.77505 -2.064 1.8766500000000002 -2.59785 3.1655999999999995 -0.5338499999999999 1.2889499999999998 -0.67365 2.7070499999999997 -0.4014 4.07535 0.2721 1.3683 0.94395 2.625 1.9303499999999998 3.6113999999999997 0.9865499999999999 0.9865499999999999 2.24325 1.6583999999999999 3.6115500000000003 1.9304999999999999 1.3683 0.27225 2.7864 0.1326 4.07535 -0.4014 1.2888 -0.5337000000000001 2.3905499999999997 -1.4379 3.1655999999999995 -2.59785s1.18875 -2.52375 1.18875 -3.9187499999999997c0 -1.8708 -0.7431 -3.6648 -2.0661 -4.98765 -1.3227 -1.3227 -3.1167 -2.06595 -4.987500000000001 -2.06595Zm0 10.580400000000001c-0.69765 0 -1.3794 -0.20684999999999998 -1.9593 -0.5944499999999999 -0.58005 -0.38744999999999996 -1.0321500000000001 -0.9382499999999999 -1.29915 -1.58265 -0.26670000000000005 -0.6445500000000001 -0.3366 -1.3536 -0.20055 -2.03775 0.13605 -0.684 0.47204999999999997 -1.3125 0.9652499999999999 -1.8056999999999999s1.1217000000000001 -0.8291999999999999 1.8056999999999999 -0.9652499999999999c0.68415 -0.13605 1.3932 -0.06615 2.03775 0.20055 0.64425 0.267 1.1951999999999998 0.71925 1.58265 1.29915 0.38760000000000006 0.58005 0.5944499999999999 1.26165 0.5944499999999999 1.9593 0 0.9352500000000001 -0.37155 1.8324 -1.03305 2.4937500000000004s-1.5585 1.03305 -2.4937500000000004 1.03305Z" fill="#ccdaf5" stroke-width="1.5"></path>
</svg>