<svg xmlns="http://www.w3.org/2000/svg" fill="none" viewBox="0 0 28 28" id="Subscription-Cashflow--Streamline-Flex" height="28" width="28">
  <desc>
    Subscription Cashflow Streamline Icon: https://streamlinehq.com
  </desc>
  <g id="subscription-cashflow">
    <path id="Union" fill="#ccdaf5" fill-rule="evenodd" d="M10.786 3.3a16.2 16.2 0 0 1 3.204 -0.3c3.72 0 6.416 1.042 8.182 2.81S24.98 10.276 24.98 14c0 2.248 -0.38 4.12 -1.068 5.644l-1.472 -0.85a1.5 1.5 0 0 0 -2.166 1.79l1.204 3.472a1.5 1.5 0 0 0 1.7 0.982l3.606 -0.692a1.5 1.5 0 0 0 0.466 -2.774l-0.73 -0.42c0.98 -2.036 1.46 -4.45 1.46 -7.152 0 -4.276 -1.206 -7.828 -3.686 -10.31S18.264 0 13.99 0c-1.34 0 -2.61 0.12 -3.798 0.36a1.5 1.5 0 1 0 0.594 2.94Zm-4.27 0.68a1.5 1.5 0 0 0 -1.84 -0.994l-3.46 0.666a1.5 1.5 0 0 0 -0.466 2.772l0.716 0.414C0.484 8.876 0 11.292 0 14c0 4.276 1.206 7.828 3.686 10.31S9.716 28 13.99 28c1.334 0 2.596 -0.118 3.776 -0.354a1.5 1.5 0 0 0 -0.59 -2.94 16.21 16.21 0 0 1 -3.186 0.294c-3.72 0 -6.416 -1.042 -8.18 -2.81C4.04 20.42 3 17.724 3 14c0 -2.252 0.38 -4.13 1.074 -5.654l1.46 0.84A1.5 1.5 0 0 0 7.696 7.4l-1.18 -3.42ZM15.684 11a2.56 2.56 0 0 0 -1.518 -0.348c-0.726 0.062 -1.128 0.3 -1.336 0.506a0.924 0.924 0 0 0 -0.294 0.666c0 0.234 0.048 0.316 0.058 0.332 0.01 0.016 0.04 0.064 0.164 0.134 0.322 0.184 0.826 0.292 1.69 0.452l0.086 0.016c0.712 0.13 1.73 0.32 2.556 0.804 0.47 0.276 0.922 0.668 1.25 1.23 0.326 0.564 0.472 1.202 0.472 1.886 0 1.058 -0.574 1.888 -1.22 2.434a5.24 5.24 0 0 1 -1.806 0.966v1.214a1.5 1.5 0 0 1 -3 0v-0.996a5.99 5.99 0 0 1 -3.128 -1.492 1.5 1.5 0 0 1 2.022 -2.214c0.806 0.734 1.936 0.92 2.918 0.704 0.488 -0.108 0.848 -0.296 1.056 -0.472a0.638 0.638 0 0 0 0.158 -0.174 0.732 0.732 0 0 0 -0.066 -0.348 0.454 0.454 0 0 0 -0.174 -0.15c-0.316 -0.186 -0.816 -0.3 -1.672 -0.46l-0.118 -0.02c-0.7 -0.13 -1.7 -0.314 -2.506 -0.772a3.38 3.38 0 0 1 -1.258 -1.202 3.59 3.59 0 0 1 -0.48 -1.872c0 -1.84 1.24 -3.396 3.248 -3.96v-1.156a1.5 1.5 0 1 1 3 0v1.116a5.73 5.73 0 0 1 2.6 1.504l0.026 0.028 0.01 0.01 0.004 0.004 0 0.002 0.002 0 -1.116 1.004 1.116 -1a1.5 1.5 0 0 1 -2.22 2.016l-0.01 -0.01a2.814 2.814 0 0 0 -0.514 -0.38Zm0.134 5.632 -0.002 0.008 0 -0.004 0 -0.004Z" clip-rule="evenodd" stroke-width="2"></path>
  </g>
</svg>