<svg xmlns="http://www.w3.org/2000/svg" viewBox="0 0 30 30" id="Print-Text--Streamline-Ultimate" height="30" width="30">
  <desc>
    Print Text Streamline Icon: https://streamlinehq.com
  </desc>
  <g id="Print-Text--Streamline-Ultimate.svg">
    <path d="M7.1875 7.5a1.25 1.25 0 0 0 1.25 -1.25V2.5h11.05l2.7 2.7V6.25a1.25 1.25 0 0 0 2.5 0V4.6875a1.25 1.25 0 0 0 -0.3625 -0.9375L21.25 0.7374999999999999A2.5 2.5 0 0 0 19.4875 0H8.4375a2.5 2.5 0 0 0 -2.5 2.5v3.75a1.25 1.25 0 0 0 1.25 1.25Z" fill="#ccdaf5" stroke-width="1.25"></path>
    <path d="M26.875 8.75h-23.75A3.125 3.125 0 0 0 0 11.875V17.5a3.125 3.125 0 0 0 3.125 3.125H6.25v7.8125A1.5625 1.5625 0 0 0 7.8125 30h15a1.5625 1.5625 0 0 0 1.5625 -1.5625V20.625h2.5A3.125 3.125 0 0 0 30 17.5V11.875A3.125 3.125 0 0 0 26.875 8.75Zm-22.5 5.625a1.25 1.25 0 1 1 1.25 -1.25 1.25 1.25 0 0 1 -1.25 1.25Zm17.5 12.5a0.625 0.625 0 0 1 -0.625 0.625H9.375a0.625 0.625 0 0 1 -0.625 -0.625v-11.25a0.625 0.625 0 0 1 0.625 -0.625H21.25a0.625 0.625 0 0 1 0.625 0.625Z" fill="#ccdaf5" stroke-width="1.25"></path>
    <path d="M18.75 18.4375H11.875a0.9375 0.9375 0 0 0 0 1.875H18.75a0.9375 0.9375 0 0 0 0 -1.875Z" fill="#ccdaf5" stroke-width="1.25"></path>
    <path d="M16.5625 22.8125H11.875a0.9375 0.9375 0 0 0 0 1.875h4.6875a0.9375 0.9375 0 0 0 0 -1.875Z" fill="#ccdaf5" stroke-width="1.25"></path>
  </g>
</svg>