<svg xmlns="http://www.w3.org/2000/svg" fill="none" viewBox="-0.73 -0.73 35 35" id="Crypto-Encryption-Key--Streamline-Ultimate" height="35" width="35">
  <desc>
    Crypto Encryption Key Streamline Icon: https://streamlinehq.com
  </desc>
  <path stroke="#ccdaf5" stroke-linecap="round" stroke-linejoin="round" d="M4.6131195499999995 9.6915507c1.18991535 -0.73578375 2.5614917249999998 -1.1249875 3.960515 -1.12384155 1.6355361750000001 0.0013416 3.226030925 0.53594125 4.53033165 1.5227299749999998 1.11182305 0.8411971749999999 1.96401855 1.97190045 2.46767755 3.261974625h14.185463500000001l2.734069 2.734069 -2.734069 2.7342087499999996h-2.05055175l-2.0506915 2.05055175 -2.05055175 -2.05055175h-1.3670345l-2.05055175 2.05055175 -2.0506915 -2.05055175h-2.56539075c-0.418691 1.0725812499999998 -1.07956875 2.0378344999999998 -1.934601175 2.81861775 -1.03317175 0.94317275 -2.309047325 1.57959425 -3.684103475 1.8372932499999999 -1.37505615 0.25783875 -2.7947764 0.126893 -4.0994684249999995 -0.3781635 -1.304692025 -0.50491675 -2.4426203749999997 -1.3639599999999998 -3.285802 -2.480283 -0.843181625 -1.11646275 -1.3581757475 -2.4459044999999997 -1.4870559924999998 -3.8389325s0.13346125 -2.794441 0.7575190675 -4.046614975c0.6240676000000001 -1.252118075 1.585086425 -2.30528805 2.7749878 -3.041057825" stroke-width="1.46"></path>
  <path stroke="#ccdaf5" stroke-linecap="round" stroke-linejoin="round" d="M5.839551575 18.1398295c1.132520025 0 2.050593675 -0.9181575000000001 2.050593675 -2.05055175 0 -1.132534 -0.91807365 -2.0506915 -2.050593675 -2.0506915 -1.13250605 0 -2.050593675 0.9181575000000001 -2.050593675 2.0506915 0 1.13239425 0.9180876250000001 2.05055175 2.050593675 2.05055175" stroke-width="1.46"></path>
  <path stroke="#ccdaf5" stroke-linejoin="round" d="M29.7569675 5.1497874999999995a1.366755 1.366755 0 1 0 2.73351 0 1.366755 1.366755 0 1 0 -2.73351 0" stroke-width="1.46"></path>
  <path stroke="#ccdaf5" stroke-linejoin="round" d="M29.7569675 27.0234575a1.366755 1.366755 0 1 0 2.73351 0 1.366755 1.366755 0 1 0 -2.73351 0" stroke-width="1.46"></path>
  <path stroke="#ccdaf5" stroke-linejoin="round" d="M7.884695000000001 31.125119999999995a1.366755 1.366755 0 1 0 2.73351 0 1.366755 1.366755 0 1 0 -2.73351 0" stroke-width="1.46"></path>
  <path stroke="#ccdaf5" stroke-linejoin="round" d="M11.9863575 2.4148799999999997a1.366755 1.366755 0 1 0 2.73351 0 1.366755 1.366755 0 1 0 -2.73351 0" stroke-width="1.46"></path>
  <path stroke="#ccdaf5" stroke-linecap="round" stroke-linejoin="round" d="M24.2888295 10.617087V6.5159136250000005c0 -0.7550133499999999 0.612105 -1.36706245 1.3670345 -1.36706245h1.3670345" stroke-width="1.46"></path>
  <path stroke="#ccdaf5" stroke-linecap="round" stroke-linejoin="round" d="M17.45351725 2.4157743999999997h1.3670345c0.7549295 0 1.3670345 0.6120491 1.3670345 1.36706245v6.835298275" stroke-width="1.46"></path>
  <path stroke="#ccdaf5" stroke-linecap="round" stroke-linejoin="round" d="M22.921795 22.238138v3.417726c0 0.7549295 0.61196525 1.3670345 1.3670345 1.3670345h2.734069" stroke-width="1.46"></path>
  <path stroke="#ccdaf5" stroke-linecap="round" stroke-linejoin="round" d="M13.352930824999998 31.12414175h2.734110925c0.75506925 0 1.3670345 -0.612105 1.3670345 -1.3670345V22.921795" stroke-width="1.46"></path>
</svg>